<?xml version="1.0" standalone="no"?>
<!DOCTYPE svg PUBLIC "-//W3C//DTD SVG 1.1//EN" "http://www.w3.org/Graphics/SVG/1.1/DTD/svg11.dtd" >
<svg xmlns="http://www.w3.org/2000/svg">
<metadata></metadata>
<defs>
<font id="BenderLight" horiz-adv-x="496" >
<font-face units-per-em="1000" ascent="800" descent="-200" />
<missing-glyph horiz-adv-x="300" />
<glyph horiz-adv-x="0" />
<glyph horiz-adv-x="1000" />
<glyph unicode=" "  horiz-adv-x="300" />
<glyph unicode="&#x09;" horiz-adv-x="300" />
<glyph unicode="&#xa0;" horiz-adv-x="300" />
<glyph unicode="!" horiz-adv-x="220" d="M80 11v28l16 16h28l16 -16v-28l-16 -16h-28zM95 120v580h30v-580h-30z" />
<glyph unicode="&#x22;" horiz-adv-x="211" d="M30 700h33l-5 -235h-23zM148 700h33l-5 -235h-23z" />
<glyph unicode="#" horiz-adv-x="738" d="M0 210v30h170l86 220h-154v30h166l83 210h30l-83 -210h252l83 210h30l-83 -210h158v-30h-170l-87 -220h155v-30h-167l-82 -210h-30l83 210h-253l-82 -210h-30l83 210h-158zM199 240h253l86 220h-252z" />
<glyph unicode="$" horiz-adv-x="548" d="M40 493v115l92 92h127v70h30v-70h135l77 -26l-9 -28l-75 24h-273l-74 -74v-95l17 -34l395 -188l26 -49v-138l-93 -92h-126v-70h-30v70h-131l-81 27l9 28l75 -25h272l75 74v118l-18 34l-397 190z" />
<glyph unicode="%" horiz-adv-x="672" d="M30 498v130l72 72h130l72 -72v-130l-72 -72h-130zM57 12l534 693l23 -18l-533 -693zM60 510l54 -54h106l54 54v106l-54 54h-106l-54 -54v-106zM368 72v130l72 72h130l72 -72v-130l-72 -72h-130zM398 84l54 -54h106l54 54v106l-54 54h-106l-54 -54v-106z" />
<glyph unicode="&#x26;" horiz-adv-x="578" d="M30 92v140l161 159l-93 104v113l93 92h208l93 -93v-87h-30v75l-75 75h-184l-75 -75v-89l324 -364l95 94l21 -21l-96 -95l95 -106l-22 -20l-94 105l-100 -99h-228zM60 105l75 -75h204l92 91l-220 247l-151 -149v-114z" />
<glyph unicode="'" horiz-adv-x="93" d="M30 700h33l-5 -235h-23z" />
<glyph unicode="(" horiz-adv-x="211" d="M40 -36v608l65 103l97 35l9 -28l-84 -28l-57 -86v-600l57 -86l84 -28l-9 -28l-97 35z" />
<glyph unicode=")" horiz-adv-x="211" d="M0 -146l84 28l57 86v600l-57 86l-84 28l9 28l97 -35l65 -103v-608l-65 -103l-97 -35z" />
<glyph unicode="*" horiz-adv-x="378" d="M30 450l129 76l-129 76l15 26l129 -76v148h30v-148l129 76l15 -26l-129 -76l129 -76l-15 -26l-129 76v-146h-30v146l-129 -76z" />
<glyph unicode="+" horiz-adv-x="490" d="M20 330v30h210v210h30v-210h210v-30h-210v-210h-30v210h-210z" />
<glyph unicode="," horiz-adv-x="120" d="M0 -180l55 240h45l-80 -240h-20z" />
<glyph unicode="-" horiz-adv-x="470" d="M20 330v30h430v-30h-430z" />
<glyph unicode="." horiz-adv-x="140" d="M40 11v28l16 16h28l16 -16v-28l-16 -16h-28z" />
<glyph unicode="/" horiz-adv-x="480" d="M0 10l455 695l25 -15l-455 -696z" />
<glyph unicode="0" horiz-adv-x="588" d="M60 92v516l93 92h283l92 -92v-516l-93 -92h-283zM90 104l23 -24l340 561l-30 29h-258l-75 -75v-491zM135 59l30 -29h258l75 75v491l-23 24z" />
<glyph unicode="1" horiz-adv-x="342" d="M20 0v30h136v641l-111 -111l-21 21l126 126h36v-677h136v-30h-302z" />
<glyph unicode="2" horiz-adv-x="529" d="M20 0v107l360 254l79 79v156l-75 74h-276l-75 -24l-9 28l82 26h291l92 -93v-178l-90 -90l-349 -247v-62h439v-30h-469z" />
<glyph unicode="3" horiz-adv-x="518" d="M10 670v30h468v-41l-301 -262h209l92 -92v-213l-93 -92h-290l-81 27l9 28l75 -25h276l74 75v187l-74 75h-224v45l297 258h-437z" />
<glyph unicode="4" horiz-adv-x="551" d="M10 188v64l413 455h35v-489h83v-30h-83v-188h-30v188h-418zM40 218h388v449l-388 -427v-22z" />
<glyph unicode="5" horiz-adv-x="538" d="M50 27l9 28l74 -25h260l75 75v190l-75 75h-339v330h444v-30h-414v-270h322l92 -92v-216l-93 -92h-274z" />
<glyph unicode="6" horiz-adv-x="569" d="M60 93v514l92 93h292l77 -26l-10 -28l-74 24h-272l-75 -74v-204l48 15h298l93 -95v-220l-93 -92h-283zM90 105l75 -75h259l75 75v195l-75 77h-284l-50 -16v-256z" />
<glyph unicode="7" horiz-adv-x="499" d="M10 670v30h469v-103l-242 -418v-179h-30v187l242 419v64h-439z" />
<glyph unicode="8" horiz-adv-x="589" d="M60 92v199l78 78l-73 72v167l92 92h279l88 -92v-167l-73 -72l78 -78v-199l-93 -92h-283zM90 105l75 -75h259l75 75v174l-75 75h-259l-75 -75v-174zM95 454l70 -70h259l70 70v142l-75 74h-249l-75 -74v-142z" />
<glyph unicode="9" horiz-adv-x="569" d="M40 388v220l93 92h283l93 -93v-514l-92 -93h-292l-77 26l10 28l74 -24h272l75 74v204l-48 -15h-298zM70 400l75 -77h284l50 16v256l-75 75h-259l-75 -75v-195z" />
<glyph unicode=":" horiz-adv-x="140" d="M40 11v28l16 16h28l16 -16v-28l-16 -16h-28zM40 421v28l16 16h28l16 -16v-28l-16 -16h-28z" />
<glyph unicode=";" horiz-adv-x="130" d="M0 -180l55 240h45l-80 -240h-20zM40 421v28l16 16h28l16 -16v-28l-16 -16h-28z" />
<glyph unicode="&#x3c;" horiz-adv-x="331" d="M20 249v28l283 234l18 -22l-273 -226l273 -226l-18 -22z" />
<glyph unicode="=" horiz-adv-x="470" d="M20 240v30h430v-30h-430zM20 420v30h430v-30h-430z" />
<glyph unicode="&#x3e;" horiz-adv-x="331" d="M10 37l273 226l-273 226l18 22l283 -234v-28l-283 -234z" />
<glyph unicode="?" horiz-adv-x="520" d="M0 601l100 99h288l92 -92v-188l-225 -177v-123h-30v137l225 177v162l-74 74h-265l-90 -90zM210 11v28l16 16h28l16 -16v-28l-16 -16h-28z" />
<glyph unicode="@" horiz-adv-x="863" d="M70 -2v590l124 112h475l124 -112v-431l-73 -72h-131l-20 67l-71 -71h-180l-73 72v94l73 72h245v97l-55 54h-163l-74 -25l-9 28l81 27h177l73 -72v-256l17 -57h98l55 54v405l-106 96h-451l-106 -96v-562l106 -96h454v-30h-466zM275 165l55 -54h156l77 76v102h-233l-55 -54 v-70z" />
<glyph unicode="A" horiz-adv-x="558" d="M20 5l229 695h60l229 -695l-28 -10l-77 235h-308l-77 -235zM135 260h288l-135 410h-18z" />
<glyph unicode="B" horiz-adv-x="599" d="M80 0v700h375l73 -73v-200l-57 -57l78 -79v-198l-93 -93h-376zM110 30h334l75 74v176l-75 75h-334v-325zM110 385h334l54 54v177l-54 54h-334v-285z" />
<glyph unicode="C" horiz-adv-x="559" d="M60 93v514l93 93h283l93 -93v-104h-30v92l-75 75h-259l-75 -75v-490l75 -75h271l68 68l21 -21l-77 -77h-295z" />
<glyph unicode="D" horiz-adv-x="610" d="M80 0v700h377l93 -94v-512l-93 -94h-377zM110 30h335l75 77v486l-75 77h-335v-640z" />
<glyph unicode="E" horiz-adv-x="527" d="M80 0v700h427v-30h-397v-285h355v-30h-355v-325h397v-30h-427z" />
<glyph unicode="F" horiz-adv-x="512" d="M80 0v700h422v-30h-392v-295h350v-30h-350v-345h-30z" />
<glyph unicode="G" horiz-adv-x="589" d="M60 92v516l92 92h285l92 -92v-105h-30v93l-75 74h-259l-75 -74v-492l75 -74h259l75 74v216h-187v30h217v-258l-92 -92h-285z" />
<glyph unicode="H" horiz-adv-x="629" d="M80 0v700h30v-314h409v314h30v-700h-30v356h-409v-356h-30z" />
<glyph unicode="I" horiz-adv-x="362" d="M30 0v30h136v640h-136v30h302v-30h-136v-640h136v-30h-302z" />
<glyph unicode="J" horiz-adv-x="503" d="M0 99l21 21l90 -90h217l75 75v565h-187v30h217v-607l-93 -93h-241z" />
<glyph unicode="K" horiz-adv-x="545" d="M80 0v700h30v-410l414 415l21 -21l-284 -285l282 -387l-24 -17l-279 383l-130 -130v-248h-30z" />
<glyph unicode="L" horiz-adv-x="498" d="M80 0v700h30v-670h388v-30h-418z" />
<glyph unicode="M" horiz-adv-x="818" d="M80 0v700h42l285 -482h4l285 482h42v-700h-30v666l-282 -478h-34l-282 478v-666h-30z" />
<glyph unicode="N" horiz-adv-x="630" d="M80 0v700h45l395 -666v666h30v-700h-45l-395 666v-666h-30z" />
<glyph unicode="O" horiz-adv-x="619" d="M60 93v514l102 93h295l102 -93v-514l-102 -93h-295zM90 106l83 -76h273l83 76v488l-83 76h-273l-83 -76v-488z" />
<glyph unicode="P" horiz-adv-x="589" d="M80 0v700h376l93 -92v-223l-93 -92h-346v-293h-30zM110 323h334l76 75v197l-76 75h-334v-347z" />
<glyph unicode="Q" horiz-adv-x="619" d="M60 93v514l102 93h295l102 -93v-514l-102 -93h-132v-138h-30v138h-133zM90 106l83 -76h122v60h30v-60h121l83 76v488l-83 76h-273l-83 -76v-488z" />
<glyph unicode="R" horiz-adv-x="596" d="M80 0v700h376l93 -92v-222l-93 -92h-179l279 -279l-21 -21l-300 300h-125v-294h-30zM110 324h334l76 75v196l-76 75h-334v-346z" />
<glyph unicode="S" horiz-adv-x="548" d="M40 493v115l92 92h292l77 -26l-9 -28l-75 24h-273l-74 -74v-95l17 -34l395 -188l26 -49v-138l-93 -92h-287l-81 27l9 28l75 -25h272l75 74v118l-18 34l-397 190z" />
<glyph unicode="T" horiz-adv-x="500" d="M0 670v30h500v-30h-235v-670h-30v670h-235z" />
<glyph unicode="U" horiz-adv-x="609" d="M70 92v608h30v-595l76 -75h257l76 75v595h30v-608l-93 -92h-283z" />
<glyph unicode="V" horiz-adv-x="562" d="M20 696l28 9l224 -675h18l224 675l28 -9l-231 -696h-60z" />
<glyph unicode="W" horiz-adv-x="894" d="M20 697l28 8l193 -672l184 646h44l184 -646l193 672l28 -8l-200 -697h-43l-184 646l-184 -646h-43z" />
<glyph unicode="X" horiz-adv-x="540" d="M20 689l24 16l226 -329l226 329l24 -16l-233 -340l232 -337l-24 -17l-225 327l-225 -327l-24 17l232 337z" />
<glyph unicode="Y" horiz-adv-x="544" d="M10 690l26 15l236 -401l236 401l26 -15l-247 -420v-270h-30v270z" />
<glyph unicode="Z" horiz-adv-x="509" d="M20 0v39l439 631h-439v30h469v-41l-439 -629h439v-30h-469z" />
<glyph unicode="[" horiz-adv-x="188" d="M40 -168v868h148v-30h-118v-808h118v-30h-148z" />
<glyph unicode="\" horiz-adv-x="480" d="M0 690l25 15l455 -695l-25 -16z" />
<glyph unicode="]" horiz-adv-x="188" d="M0 -138h118v808h-118v30h148v-868h-148v30z" />
<glyph unicode="^" horiz-adv-x="440" d="M0 417l206 283h28l206 -283l-24 -17l-196 270l-196 -270z" />
<glyph unicode="_" horiz-adv-x="430" d="M0 0h430v-30h-430v30z" />
<glyph unicode="`" horiz-adv-x="170" d="M-10 700h49l141 -220h-26z" />
<glyph unicode="a" horiz-adv-x="527" d="M50 72v147l73 72h299v158l-55 54h-216l-74 -25l-9 28l81 27h230l73 -72v-359l25 -99l-28 -7l-20 77l-72 -73h-234zM80 84l55 -54h210l77 77v154h-287l-55 -54v-123z" />
<glyph unicode="b" horiz-adv-x="540" d="M50 694l28 10l26 -82v-148l58 59h247l71 -72v-390l-71 -71h-263l-72 72v548zM104 83l54 -53h238l54 53v365l-54 55h-222l-70 -70v-350z" />
<glyph unicode="c" d="M60 72v389l71 72h264l71 -72v-105h-30v93l-53 54h-240l-53 -54v-365l53 -54h236l75 24l9 -28l-81 -26h-251z" />
<glyph unicode="d" horiz-adv-x="541" d="M60 71v391l71 71h263l42 -42v209h30v-598l25 -99l-28 -7l-20 77l-72 -73h-240zM90 83l53 -53h216l77 77v342l-54 54h-239l-53 -53v-367z" />
<glyph unicode="e" horiz-adv-x="506" d="M60 72v389l72 72h262l72 -72v-146l-72 -72h-304v-159l54 -54h235l75 24l9 -28l-81 -26h-250zM90 273h292l54 54v122l-54 54h-238l-54 -54v-176z" />
<glyph unicode="f" horiz-adv-x="385" d="M20 440v30h103v159l72 71h158l82 -27l-10 -28l-74 25h-144l-54 -53v-147h207v-30h-207v-440h-30v440h-103z" />
<glyph unicode="g" horiz-adv-x="495" d="M50 50v75l36 36l-36 36v264l72 72h237l99 25l7 -28l-77 -20l73 -72v-241l-72 -72h-267l-15 15l-27 -27v-50l33 -33h298l50 -50v-98l-50 -50h-300l-57 56l21 21l48 -47h275l33 33v72l-33 33h-298zM80 209l54 -54h243l54 54v217l-77 77h-220l-54 -54v-240z" />
<glyph unicode="h" horiz-adv-x="541" d="M50 694l28 10l27 -82v-148l58 59h247l71 -72v-461h-30v448l-54 55h-221l-71 -72v-431h-30v620z" />
<glyph unicode="i" horiz-adv-x="179" d="M50 537l28 9l26 -86v-460h-30v458zM59 641v28l16 16h28l16 -16v-28l-16 -16h-28z" />
<glyph unicode="j" horiz-adv-x="186" d="M-60 -145l104 36l37 54v513l-24 79l28 9l26 -86v-519l-45 -71l-117 -43zM66 641v28l16 16h28l16 -16v-28l-16 -16h-28z" />
<glyph unicode="k" horiz-adv-x="487" d="M50 694l28 10l26 -82v-378l354 294l19 -23l-250 -208l248 -294l-23 -19l-248 294l-100 -83v-205h-30v620z" />
<glyph unicode="l" horiz-adv-x="164" d="M50 694l28 10l26 -82v-622h-30v620z" />
<glyph unicode="m" horiz-adv-x="815" d="M50 530l28 7l20 -77l72 73h188l57 -57l56 57h212l72 -72v-461h-30v448l-55 55h-186l-54 -54v-449h-30v448l-55 55h-163l-77 -77v-426h-30v431z" />
<glyph unicode="n" horiz-adv-x="542" d="M50 530l28 7l20 -77l72 73h240l72 -72v-461h-30v448l-55 55h-215l-77 -77v-426h-30v431z" />
<glyph unicode="o" horiz-adv-x="531" d="M60 73v387l72 73h267l72 -73v-387l-72 -73h-267zM90 84l54 -54h243l54 54v365l-54 54h-243l-54 -54v-365z" />
<glyph unicode="p" horiz-adv-x="541" d="M50 530l28 7l20 -77l72 73h240l71 -71v-391l-71 -71h-263l-42 42v-210h-30v599zM105 84l54 -54h239l53 53v367l-53 53h-216l-77 -77v-342z" />
<glyph unicode="q" horiz-adv-x="530" d="M60 72v390l71 71h263l72 -72v-548l24 -74l-28 -10l-26 82v148l-58 -59h-247zM90 85l54 -55h222l70 70v350l-54 53h-238l-54 -53v-365z" />
<glyph unicode="r" horiz-adv-x="432" d="M50 530l28 7l20 -77l72 73h182l80 -79l-21 -21l-70 70h-159l-77 -77v-426h-30v431z" />
<glyph unicode="s" horiz-adv-x="467" d="M30 373v88l72 72h251l81 -27l-9 -28l-75 25h-235l-55 -55v-68l17 -33l334 -126l26 -48v-101l-72 -72h-252l-81 26l9 28l74 -24h237l55 55v80l-17 33l-334 126z" />
<glyph unicode="t" horiz-adv-x="445" d="M20 493v30h113v147h30v-147h207v-30h-207v-409l54 -54h144l75 24l9 -28l-81 -26h-159l-72 72v421h-113z" />
<glyph unicode="u" horiz-adv-x="542" d="M60 72v461h30v-448l55 -55h215l77 77v426h30v-431l25 -99l-28 -7l-20 77l-72 -73h-240z" />
<glyph unicode="v" horiz-adv-x="474" d="M10 527l28 11l199 -510l199 510l28 -11l-206 -527h-42z" />
<glyph unicode="w" horiz-adv-x="704" d="M10 530l28 8l148 -508l145 481h42l145 -481l148 508l28 -8l-155 -530h-42l-145 481l-145 -481h-42z" />
<glyph unicode="x" horiz-adv-x="438" d="M10 12l191 255l-191 253l24 18l185 -246l185 246l24 -18l-191 -253l191 -255l-24 -18l-185 247l-185 -247z" />
<glyph unicode="y" horiz-adv-x="475" d="M10 525l28 11l203 -506h21l175 506l28 -10l-222 -643l-51 -51h-103v30h93l35 35l35 103h-31z" />
<glyph unicode="z" horiz-adv-x="446" d="M20 0v40l376 462h-376v30h406v-41l-376 -461h376v-30h-406z" />
<glyph unicode="{" horiz-adv-x="279" d="M20 255v26l88 77v229l63 99l101 25l7 -28l-91 -23l-50 -79v-236l-88 -77l88 -77v-236l50 -79l91 -23l-7 -28l-101 25l-63 99v229z" />
<glyph unicode="|" horiz-adv-x="190" d="M80 -168v868h30v-868h-30z" />
<glyph unicode="}" horiz-adv-x="279" d="M0 -147l91 23l50 79v236l88 77l-88 77v236l-50 79l-91 23l7 28l101 -25l63 -99v-229l88 -77v-26l-88 -77v-229l-63 -99l-101 -25z" />
<glyph unicode="~" horiz-adv-x="601" d="M20 382l21 21l90 -90h117l93 93h141l99 -99l-21 -21l-90 90h-117l-93 -93h-141z" />
<glyph unicode="&#xa2;" d="M60 72v389l71 72h124v70h30v-70h110l71 -72v-105h-30v93l-53 54h-240l-53 -54v-365l53 -54h236l75 24l9 -28l-81 -26h-97v-70h-30v70h-124z" />
<glyph unicode="&#xa5;" horiz-adv-x="544" d="M10 690l26 15l236 -401l236 401l26 -15l-238 -405h171v-30h-180v-70h180v-30h-180v-155h-30v155h-180v30h180v70h-180v30h171z" />
<glyph unicode="&#xa9;" horiz-adv-x="843" d="M60 113v474l124 113h475l124 -113v-474l-124 -113h-475zM90 129l109 -99h445l109 99v442l-109 99h-445l-109 -99v-442zM250 217v266l71 72h196l71 -72v-71h-30v59l-53 54h-172l-53 -54v-242l53 -54h167l75 24l9 -28l-81 -26h-182z" />
<glyph unicode="&#xab;" horiz-adv-x="512" d="M20 263l289 248l19 -22l-264 -226l264 -226l-19 -22zM194 263l289 248l19 -22l-264 -226l264 -226l-19 -22z" />
<glyph unicode="&#xae;" horiz-adv-x="843" d="M60 113v474l124 113h475l124 -113v-474l-124 -113h-475zM90 129l109 -99h445l109 99v442l-109 99h-445l-109 -99v-442zM260 145v410h271l72 -71v-99l-72 -71h-79l153 -153l-21 -21l-174 174h-120v-169h-30zM290 344h229l54 53v75l-54 53h-229v-181z" />
<glyph unicode="&#xbb;" horiz-adv-x="512" d="M10 37l264 226l-264 226l19 22l289 -248l-289 -248zM184 37l264 226l-264 226l19 22l289 -248l-289 -248z" />
<glyph unicode="&#x401;" horiz-adv-x="527" d="M80 0v700h427v-30h-397v-285h355v-30h-355v-325h397v-30h-427zM170 806v28l16 16h28l16 -16v-28l-16 -16h-28zM356 806v28l16 16h28l16 -16v-28l-16 -16h-28z" />
<glyph unicode="&#x402;" horiz-adv-x="650" d="M-20 670v30h350v-30h-160v-243l48 15h311l71 -72v-316l-45 -71l-117 -43l-9 28l104 36l37 54v300l-53 54h-297l-50 -16v-396h-30v670h-160z" />
<glyph unicode="&#x403;" d="M80 0v700h416v-30h-386v-670h-30zM260 745l100 170h40l-110 -170h-30z" />
<glyph unicode="&#x404;" horiz-adv-x="559" d="M60 93v514l93 93h283l93 -93v-104h-30v92l-75 75h-259l-75 -75v-228h306v-30h-306v-232l75 -75h271l68 68l21 -21l-77 -77h-295z" />
<glyph unicode="&#x405;" horiz-adv-x="548" d="M40 493v115l92 92h292l77 -26l-9 -28l-75 24h-273l-74 -74v-95l17 -34l395 -188l26 -49v-138l-93 -92h-287l-81 27l9 28l75 -25h272l75 74v118l-18 34l-397 190z" />
<glyph unicode="&#x406;" horiz-adv-x="362" d="M30 0v30h136v640h-136v30h302v-30h-136v-640h136v-30h-302z" />
<glyph unicode="&#x407;" horiz-adv-x="362" d="M30 0v30h136v640h-136v30h302v-30h-136v-640h136v-30h-302zM58 796v28l16 16h28l16 -16v-28l-16 -16h-28zM244 796v28l16 16h28l16 -16v-28l-16 -16h-28z" />
<glyph unicode="&#x408;" horiz-adv-x="503" d="M0 99l21 21l90 -90h217l75 75v565h-187v30h217v-607l-93 -93h-241z" />
<glyph unicode="&#x409;" horiz-adv-x="961" d="M0 24l73 24l36 36l63 616h350v-301h317l92 -94v-211l-92 -94h-347v670h-293l-62 -599l-51 -50l-77 -25zM522 30h304l75 77v185l-75 77h-304v-339z" />
<glyph unicode="&#x40a;" horiz-adv-x="958" d="M80 0v700h30v-307h379v307h30v-307h317l92 -94v-205l-92 -94h-347v363h-379v-363h-30zM519 30h304l75 77v179l-75 77h-304v-333z" />
<glyph unicode="&#x40b;" horiz-adv-x="650" d="M-20 670v30h350v-30h-160v-243l48 15h311l71 -72v-370h-30v358l-53 54h-297l-50 -16v-396h-30v670h-160z" />
<glyph unicode="&#x40c;" horiz-adv-x="563" d="M80 0v700h30v-335h154l196 312l84 28l9 -28l-72 -24l-190 -303l190 -303l72 -24l-9 -28l-84 28l-196 312h-154v-335h-30zM254 710l100 170h40l-110 -170h-30z" />
<glyph unicode="&#x40e;" horiz-adv-x="529" d="M0 693l26 12l258 -538l219 538l26 -11l-262 -643l-54 -51h-113v30h101l43 39l25 62zM87 820v63h30v-51l33 -33h239l33 33v51h30v-63l-51 -51h-263z" />
<glyph unicode="&#x40f;" horiz-adv-x="620" d="M80 0v700h30v-670h400v670h30v-700h-215v-168h-30v168h-215z" />
<glyph unicode="&#x410;" horiz-adv-x="558" d="M20 5l229 695h60l229 -695l-28 -10l-77 235h-308l-77 -235zM135 260h288l-135 410h-18z" />
<glyph unicode="&#x411;" horiz-adv-x="589" d="M80 0v700h427v-30h-397v-271h347l92 -94v-211l-92 -94h-377zM110 30h334l75 77v185l-75 77h-334v-339z" />
<glyph unicode="&#x412;" horiz-adv-x="599" d="M80 0v700h375l73 -73v-200l-57 -57l78 -79v-198l-93 -93h-376zM110 30h334l75 74v176l-75 75h-334v-325zM110 385h334l54 54v177l-54 54h-334v-285z" />
<glyph unicode="&#x413;" d="M80 0v700h416v-30h-386v-670h-30z" />
<glyph unicode="&#x414;" horiz-adv-x="630" d="M0 30h55l50 73l63 597h369v-670h73v-198h-30v168h-550v-168h-30v198zM91 30h416v640h-312l-62 -578z" />
<glyph unicode="&#x415;" horiz-adv-x="527" d="M80 0v700h427v-30h-397v-285h355v-30h-355v-325h397v-30h-427z" />
<glyph unicode="&#x416;" horiz-adv-x="832" d="M10 23l72 24l190 303l-190 303l-72 24l9 28l84 -28l196 -312h102v335h30v-335h102l196 312l84 28l9 -28l-72 -24l-190 -303l190 -303l72 -24l-9 -28l-84 28l-196 312h-102v-335h-30v335h-102l-196 -312l-84 -28z" />
<glyph unicode="&#x417;" horiz-adv-x="523" d="M0 26l10 28l74 -24h284l75 75v162l-75 77h-220v30h219l69 68v159l-69 69h-273l-74 -25l-10 28l82 27h288l86 -86v-185l-71 -70l78 -80v-187l-92 -92h-304z" />
<glyph unicode="&#x418;" horiz-adv-x="630" d="M80 0v700h30v-666l395 666h45v-700h-30v666l-395 -666h-45z" />
<glyph unicode="&#x419;" horiz-adv-x="630" d="M80 0v700h30v-666l395 666h45v-700h-30v666l-395 -666h-45zM132 846v63h30v-51l33 -33h239l33 33v51h30v-63l-51 -51h-263z" />
<glyph unicode="&#x41a;" horiz-adv-x="563" d="M80 0v700h30v-335h154l196 312l84 28l9 -28l-72 -24l-190 -303l190 -303l72 -24l-9 -28l-84 28l-196 312h-154v-335h-30z" />
<glyph unicode="&#x41b;" horiz-adv-x="632" d="M0 24l73 24l36 36l64 616h379v-700h-30v670h-323l-62 -599l-51 -50l-77 -25z" />
<glyph unicode="&#x41c;" horiz-adv-x="818" d="M80 0v700h42l285 -482h4l285 482h42v-700h-30v666l-282 -478h-34l-282 478v-666h-30z" />
<glyph unicode="&#x41d;" horiz-adv-x="629" d="M80 0v700h30v-314h409v314h30v-700h-30v356h-409v-356h-30z" />
<glyph unicode="&#x41e;" horiz-adv-x="619" d="M60 93v514l102 93h295l102 -93v-514l-102 -93h-295zM90 106l83 -76h273l83 76v488l-83 76h-273l-83 -76v-488z" />
<glyph unicode="&#x41f;" horiz-adv-x="629" d="M80 0v700h469v-700h-30v670h-409v-670h-30z" />
<glyph unicode="&#x420;" horiz-adv-x="589" d="M80 0v700h376l93 -92v-223l-93 -92h-346v-293h-30zM110 323h334l76 75v197l-76 75h-334v-347z" />
<glyph unicode="&#x421;" horiz-adv-x="559" d="M60 93v514l93 93h283l93 -93v-104h-30v92l-75 75h-259l-75 -75v-490l75 -75h271l68 68l21 -21l-77 -77h-295z" />
<glyph unicode="&#x422;" horiz-adv-x="500" d="M0 670v30h500v-30h-235v-670h-30v670h-235z" />
<glyph unicode="&#x423;" horiz-adv-x="529" d="M0 693l26 12l258 -538l219 538l26 -11l-262 -643l-54 -51h-113v30h101l43 39l25 62z" />
<glyph unicode="&#x424;" horiz-adv-x="790" d="M50 183v374l93 93h237v115h30v-115h237l93 -93v-374l-93 -93h-237v-115h-30v115h-237zM80 195l75 -75h225v500h-225l-75 -75v-350zM410 120h225l75 75v350l-75 75h-225v-500z" />
<glyph unicode="&#x425;" horiz-adv-x="540" d="M20 689l24 16l226 -329l226 329l24 -16l-233 -340l232 -337l-24 -17l-225 327l-225 -327l-24 17l232 337z" />
<glyph unicode="&#x426;" horiz-adv-x="644" d="M80 0v700h30v-670h400v670h30v-670h84v-198h-30v168h-514z" />
<glyph unicode="&#x427;" horiz-adv-x="600" d="M60 355v345h30v-333l53 -54h297l50 16v371h30v-700h-30v298l-48 -15h-311z" />
<glyph unicode="&#x428;" horiz-adv-x="950" d="M80 0v700h29v-670h351v670h30v-670h350v670h30v-700h-790z" />
<glyph unicode="&#x429;" horiz-adv-x="975" d="M80 0v700h30v-670h351v670h30v-670h350v670h30v-670h84v-198h-30v168h-845z" />
<glyph unicode="&#x42a;" horiz-adv-x="666" d="M0 670v30h197v-301h347l92 -94v-211l-92 -94h-377v670h-167zM197 30h334l75 77v185l-75 77h-334v-339z" />
<glyph unicode="&#x42b;" horiz-adv-x="782" d="M80 0v700h30v-301h347l92 -94v-211l-92 -94h-377zM110 30h334l75 77v185l-75 77h-334v-339zM672 0v700h30v-700h-30z" />
<glyph unicode="&#x42c;" horiz-adv-x="579" d="M80 0v700h30v-301h347l92 -94v-211l-92 -94h-377zM110 30h334l75 77v185l-75 77h-334v-339z" />
<glyph unicode="&#x42d;" horiz-adv-x="559" d="M30 503v104l93 93h283l93 -93v-514l-93 -93h-295l-77 77l21 21l68 -68h271l75 75v232h-306v30h306v228l-75 75h-259l-75 -75v-92h-30z" />
<glyph unicode="&#x42e;" horiz-adv-x="850" d="M80 0v700h30v-315h207v222l102 93h269l102 -93v-514l-102 -93h-269l-102 93v262h-207v-355h-30zM347 106l83 -76h247l83 76v488l-83 76h-247l-83 -76v-488z" />
<glyph unicode="&#x42f;" horiz-adv-x="596" d="M40 24l72 24l147 245h-113l-93 92v223l93 92h370v-700h-30v293h-192l-161 -269l-84 -28zM82 398l76 -75h328v347h-328l-76 -75v-197z" />
<glyph unicode="&#x430;" horiz-adv-x="527" d="M50 72v147l73 72h299v158l-55 54h-216l-74 -25l-9 28l81 27h230l73 -72v-359l25 -99l-28 -7l-20 77l-72 -73h-234zM80 84l55 -54h210l77 77v154h-287l-55 -54v-123z" />
<glyph unicode="&#x431;" horiz-adv-x="541" d="M60 72v506l107 107l233 36l70 70l21 -21l-76 -76l-233 -36l-92 -92v-132l58 58h256l72 -72v-348l-72 -72h-272zM90 84l54 -54h248l54 54v324l-54 54h-232l-70 -70v-308z" />
<glyph unicode="&#x432;" horiz-adv-x="516" d="M60 0v533h334l55 -55v-161l-40 -40l57 -56v-150l-71 -71h-335zM90 30h292l54 54v124l-56 55h-290v-233zM90 293h292l37 37v136l-37 37h-292v-210z" />
<glyph unicode="&#x433;" horiz-adv-x="414" d="M60 0v533h354v-30h-324v-503h-30z" />
<glyph unicode="&#x434;" horiz-adv-x="541" d="M0 30h43l48 72l46 431h327v-503h57v-170h-30v140h-461v-140h-30v170zM78 30h356v473h-271l-43 -410z" />
<glyph unicode="&#x435;" horiz-adv-x="506" d="M60 72v389l72 72h262l72 -72v-146l-72 -72h-304v-159l54 -54h235l75 24l9 -28l-81 -26h-250zM90 273h292l54 54v122l-54 54h-238l-54 -54v-176z" />
<glyph unicode="&#x436;" horiz-adv-x="710" d="M10 21l53 28l168 217l-168 217l-53 28l14 26l60 -32l173 -224h83v252h30v-252h83l173 224l60 32l14 -26l-53 -28l-168 -217l168 -217l53 -28l-14 -26l-60 32l-173 224h-83v-251h-30v251h-83l-173 -224l-60 -32z" />
<glyph unicode="&#x437;" horiz-adv-x="465" d="M10 26l9 28l75 -24h237l54 54v119l-55 55h-211v30h214l47 48v117l-50 50h-226l-75 -25l-9 28l81 27h241l68 -68v-140l-52 -53l57 -57v-143l-72 -72h-252z" />
<glyph unicode="&#x438;" horiz-adv-x="540" d="M50 527l28 9l27 -81v-422l332 500h43v-533h-30v500l-332 -500h-43v453z" />
<glyph unicode="&#x439;" horiz-adv-x="540" d="M50 527l28 9l27 -81v-422l332 500h43v-533h-30v500l-332 -500h-43v453zM97 679v63h30v-51l33 -33h235l33 33v51h30v-63l-51 -51h-259z" />
<glyph unicode="&#x43a;" horiz-adv-x="476" d="M60 0v533h30v-252h129l173 224l60 32l14 -26l-53 -28l-168 -217l168 -217l53 -28l-14 -26l-60 32l-173 224h-129v-251h-30z" />
<glyph unicode="&#x43b;" horiz-adv-x="537" d="M0 24l73 25l36 35l42 449h326v-533h-30v503h-269l-41 -434l-46 -45l-82 -28z" />
<glyph unicode="&#x43c;" horiz-adv-x="652" d="M60 0v533h44l220 -376h4l220 376h44v-533h-30v496l-217 -371h-38l-217 371v-496h-30z" />
<glyph unicode="&#x43d;" horiz-adv-x="541" d="M50 527l28 9l27 -81v-168h346v246h30v-533h-30v257h-346v-257h-30v453z" />
<glyph unicode="&#x43e;" horiz-adv-x="531" d="M60 73v387l72 73h267l72 -73v-387l-72 -73h-267zM90 84l54 -54h243l54 54v365l-54 54h-243l-54 -54v-365z" />
<glyph unicode="&#x43f;" horiz-adv-x="526" d="M60 0v533h406v-533h-30v503h-346v-503h-30z" />
<glyph unicode="&#x440;" horiz-adv-x="541" d="M50 530l28 7l20 -77l72 73h240l71 -71v-391l-71 -71h-263l-42 42v-210h-30v599zM105 84l54 -54h239l53 53v367l-53 53h-216l-77 -77v-342z" />
<glyph unicode="&#x441;" d="M60 72v389l71 72h264l71 -72v-105h-30v93l-53 54h-240l-53 -54v-365l53 -54h236l75 24l9 -28l-81 -26h-251z" />
<glyph unicode="&#x442;" horiz-adv-x="416" d="M0 503v30h416v-30h-193v-503h-30v503h-193z" />
<glyph unicode="&#x443;" horiz-adv-x="475" d="M10 525l28 11l203 -506h21l175 506l28 -10l-222 -643l-51 -51h-103v30h93l35 35l35 103h-31z" />
<glyph unicode="&#x444;" horiz-adv-x="700" d="M60 71v391l71 71h156l48 -16v103l-25 75l28 9l27 -82v-105l48 16h156l71 -71v-391l-71 -71h-156l-48 15v-183h-30v183l-48 -15h-156zM90 84l54 -54h141l50 16v440l-50 17h-141l-54 -54v-365zM365 46l50 -16h141l54 54v365l-54 54h-141l-50 -17v-440z" />
<glyph unicode="&#x445;" horiz-adv-x="438" d="M10 12l191 255l-191 253l24 18l185 -246l185 246l24 -18l-191 -253l191 -255l-24 -18l-185 247l-185 -247z" />
<glyph unicode="&#x446;" horiz-adv-x="544" d="M60 0v533h30v-503h341v503h30v-503h63v-170h-30v140h-434z" />
<glyph unicode="&#x447;" horiz-adv-x="499" d="M50 281v252h30v-239l54 -54h225l50 16v277h30v-533h-30v225l-48 -15h-240z" />
<glyph unicode="&#x448;" horiz-adv-x="800" d="M60 0v533h30v-503h295v503h30v-503h295v503h30v-533h-680z" />
<glyph unicode="&#x449;" horiz-adv-x="823" d="M60 0v533h30v-503h295v503h30v-503h295v503h30v-503h63v-170h-30v140h-713z" />
<glyph unicode="&#x44a;" horiz-adv-x="602" d="M10 503v30h185v-223h305l72 -72v-166l-72 -72h-335v503h-155zM195 30h293l54 54v142l-54 54h-293v-250z" />
<glyph unicode="&#x44b;" horiz-adv-x="652" d="M60 0v533h30v-223h305l72 -72v-166l-72 -72h-335zM90 30h293l54 54v142l-54 54h-293v-250zM562 0v533h30v-533h-30z" />
<glyph unicode="&#x44c;" horiz-adv-x="497" d="M60 0v533h30v-223h305l72 -72v-166l-72 -72h-335zM90 30h293l54 54v142l-54 54h-293v-250z" />
<glyph unicode="&#x44d;" d="M30 356v105l71 72h264l71 -72v-389l-71 -72h-251l-81 26l9 28l75 -24h236l53 54v166h-269v30h269v169l-53 54h-240l-53 -54v-93h-30z" />
<glyph unicode="&#x44e;" horiz-adv-x="709" d="M60 0v533h30v-246h163v173l72 73h252l72 -73v-387l-72 -73h-252l-72 73v184h-163v-257h-30zM283 84l54 -54h228l54 54v365l-54 54h-228l-54 -54v-365z" />
<glyph unicode="&#x44f;" horiz-adv-x="508" d="M30 21l53 28l130 179h-100l-71 70v165l71 70h335v-533h-30v228h-168l-146 -201l-60 -32zM72 311l54 -53h292v245h-292l-54 -53v-139z" />
<glyph unicode="&#x451;" horiz-adv-x="506" d="M60 72v389l72 72h262l72 -72v-146l-72 -72h-304v-159l54 -54h235l75 24l9 -28l-81 -26h-250zM90 273h292l54 54v122l-54 54h-238l-54 -54v-176zM145 631v28l16 16h28l16 -16v-28l-16 -16h-28zM321 631v28l16 16h28l16 -16v-28l-16 -16h-28z" />
<glyph unicode="&#x452;" horiz-adv-x="559" d="M0 553v30h103v37l-25 74l28 10l27 -82v-39h207v-30h-207v-159l58 59h247l71 -72v-327l-45 -71l-117 -43l-9 28l104 36l37 54v310l-54 55h-221l-71 -72v-351h-30v553h-103z" />
<glyph unicode="&#x453;" horiz-adv-x="414" d="M60 0v533h354v-30h-324v-503h-30zM210 578l100 170h40l-110 -170h-30z" />
<glyph unicode="&#x454;" d="M60 72v389l71 72h264l71 -72v-105h-30v93l-53 54h-240l-53 -54v-169h269v-30h-269v-166l53 -54h236l75 24l9 -28l-81 -26h-251z" />
<glyph unicode="&#x455;" horiz-adv-x="467" d="M30 373v88l72 72h251l81 -27l-9 -28l-75 25h-235l-55 -55v-68l17 -33l334 -126l26 -48v-101l-72 -72h-252l-81 26l9 28l74 -24h237l55 55v80l-17 33l-334 126z" />
<glyph unicode="&#x456;" horiz-adv-x="179" d="M50 537l28 9l26 -86v-460h-30v458zM59 641v28l16 16h28l16 -16v-28l-16 -16h-28z" />
<glyph unicode="&#x457;" horiz-adv-x="179" d="M-9 641v28l16 16h28l16 -16v-28l-16 -16h-28zM50 537l28 9l26 -86v-460h-30v458zM127 641v28l16 16h28l16 -16v-28l-16 -16h-28z" />
<glyph unicode="&#x458;" horiz-adv-x="186" d="M-60 -145l104 36l37 54v517l-25 75l28 9l27 -82v-523l-45 -71l-117 -43zM66 641v28l16 16h28l16 -16v-28l-16 -16h-28z" />
<glyph unicode="&#x459;" horiz-adv-x="824" d="M0 24l73 25l36 35l42 449h296v-223h275l72 -72v-166l-72 -72h-305v503h-239l-41 -434l-46 -45l-82 -28zM447 30h263l54 54v142l-54 54h-263v-250z" />
<glyph unicode="&#x45a;" horiz-adv-x="828" d="M50 527l28 9l27 -81v-156h316v234h30v-234h275l72 -72v-155l-72 -72h-305v269h-316v-269h-30v453zM451 30h263l54 54v131l-54 54h-263v-239z" />
<glyph unicode="&#x45b;" horiz-adv-x="559" d="M0 558v30h103v32l-25 74l28 10l27 -82v-34h207v-30h-207v-174l58 59h247l71 -72v-371h-30v358l-54 55h-221l-71 -72v-341h-30v558h-103z" />
<glyph unicode="&#x45c;" horiz-adv-x="476" d="M60 0v533h30v-252h129l173 224l60 32l14 -26l-53 -28l-168 -217l168 -217l53 -28l-14 -26l-60 32l-173 224h-129v-251h-30zM202 543l100 170h40l-110 -170h-30z" />
<glyph unicode="&#x45e;" horiz-adv-x="475" d="M10 525l28 11l203 -506h21l175 506l28 -10l-222 -643l-51 -51h-103v30h93l35 35l35 103h-31zM62 662v63h30v-51l33 -33h235l33 33v51h30v-63l-51 -51h-259z" />
<glyph unicode="&#x45f;" horiz-adv-x="521" d="M60 0v533h30v-503h341v503h30v-533h-185v-140h-30v140h-186z" />
<glyph unicode="&#x490;" d="M80 0v700h386v80h30v-110h-386v-670h-30z" />
<glyph unicode="&#x491;" horiz-adv-x="414" d="M60 0v533h324v70h30v-100h-324v-503h-30z" />
<glyph unicode="&#x2013;" horiz-adv-x="510" d="M20 280v30h470v-30h-470z" />
<glyph unicode="&#x2014;" horiz-adv-x="698" d="M20 280v30h658v-30h-658z" />
<glyph unicode="&#x2018;" horiz-adv-x="110" d="M0 460l80 240h20l-55 -240h-45z" />
<glyph unicode="&#x2019;" horiz-adv-x="110" d="M10 460l55 240h45l-80 -240h-20z" />
<glyph unicode="&#x201a;" horiz-adv-x="110" d="M10 -180l55 240h45l-80 -240h-20z" />
<glyph unicode="&#x201c;" horiz-adv-x="225" d="M0 460l80 240h20l-55 -240h-45zM115 460l80 240h20l-55 -240h-45z" />
<glyph unicode="&#x201d;" horiz-adv-x="225" d="M10 460l55 240h45l-80 -240h-20zM125 460l55 240h45l-80 -240h-20z" />
<glyph unicode="&#x201e;" horiz-adv-x="225" d="M10 -180l55 240h45l-80 -240h-20zM125 -180l55 240h45l-80 -240h-20z" />
<glyph unicode="&#x2026;" horiz-adv-x="420" d="M40 11v28l16 16h28l16 -16v-28l-16 -16h-28zM180 11v28l16 16h28l16 -16v-28l-16 -16h-28zM320 11v28l16 16h28l16 -16v-28l-16 -16h-28z" />
<glyph unicode="&#x2039;" horiz-adv-x="331" d="M20 249v28l283 234l18 -22l-273 -226l273 -226l-18 -22z" />
<glyph unicode="&#x203a;" horiz-adv-x="331" d="M10 37l273 226l-273 226l18 22l283 -234v-28l-283 -234z" />
<glyph unicode="&#x20ac;" horiz-adv-x="569" d="M-10 275v30h80v90h-70v30h70v182l93 93h283l93 -93v-104h-30v92l-75 75h-259l-75 -75v-170h320v-30h-320v-90h310v-30h-310v-170l75 -75h271l68 68l21 -21l-77 -77h-295l-93 93v182h-80z" />
<glyph unicode="&#x2122;" horiz-adv-x="700" d="M0 670v30h280v-30h-125v-300h-30v300h-125zM330 370v330h44l116 -200l116 200h44v-330h-30v295l-113 -194h-34l-113 194v-295h-30z" />
</font>
</defs>
</svg>
