<?xml version="1.0" standalone="no"?>
<!DOCTYPE svg PUBLIC "-//W3C//DTD SVG 1.1//EN" "http://www.w3.org/Graphics/SVG/1.1/DTD/svg11.dtd" >
<svg xmlns="http://www.w3.org/2000/svg">
<metadata></metadata>
<defs>
<font id="BenderBlack" horiz-adv-x="619" >
<font-face units-per-em="1000" ascent="800" descent="-200" />
<missing-glyph horiz-adv-x="330" />
<glyph horiz-adv-x="0" />
<glyph horiz-adv-x="1000" />
<glyph unicode=" "  horiz-adv-x="330" />
<glyph unicode="&#x09;" horiz-adv-x="330" />
<glyph unicode="&#xa0;" horiz-adv-x="330" />
<glyph unicode="!" horiz-adv-x="290" d="M60 27v85l42 42h81l47 -42v-85l-42 -42h-86zM61 710h168l-8 -500h-152z" />
<glyph unicode="&#x22;" horiz-adv-x="404" d="M30 710h142l-18 -320h-106zM232 710h142l-18 -320h-106z" />
<glyph unicode="#" horiz-adv-x="800" d="M0 152v135h162l53 136h-107v135h160l60 152h151l-60 -152h120l60 152h151l-60 -152h110v-135h-163l-53 -136h108v-135h-161l-59 -152h-151l59 152h-120l-59 -152h-151l59 152h-109zM313 287h120l53 136h-120z" />
<glyph unicode="$" horiz-adv-x="600" d="M30 49l47 139l126 -43h173l34 34v25l-13 27l-319 138l-42 79v135l127 127h68v70h139v-70h56l144 -49l-47 -139l-126 43h-172l-34 -34v-25l13 -27l319 -138l42 -79v-135l-127 -127h-68v-70h-139v70h-57z" />
<glyph unicode="%" horiz-adv-x="836" d="M25 477v136l97 97h146l97 -97v-136l-97 -97h-146zM101 66l515 669l119 -91l-515 -669zM145 518l23 -23h54l23 23v54l-23 23h-54l-23 -23v-54zM471 97v136l97 97h146l97 -97v-136l-97 -97h-146zM591 138l23 -23h54l23 23v54l-23 23h-54l-23 -23v-54z" />
<glyph unicode="&#x26;" horiz-adv-x="652" d="M30 127v128l140 138l-72 81v109l128 127h214l128 -127v-123h-155v83l-32 32h-96l-32 -32v-26l219 -250l72 64l98 -109l-73 -65l72 -82l-109 -95l-71 80l-67 -60h-236zM185 167l32 -32h108l40 35l-105 120l-75 -75v-48z" />
<glyph unicode="'" horiz-adv-x="202" d="M30 710h142l-18 -320h-106z" />
<glyph unicode="(" horiz-adv-x="316" d="M40 -36v614l85 138l145 49l46 -136l-85 -29l-36 -59v-540l36 -59l85 -29l-46 -136l-145 49z" />
<glyph unicode=")" horiz-adv-x="316" d="M0 -87l85 29l36 59v540l-36 59l-85 29l46 136l145 -49l85 -138v-614l-85 -138l-145 -49z" />
<glyph unicode="*" horiz-adv-x="448" d="M30 467l91 53l-91 53l56 97l83 -48v88h110v-88l83 48l56 -97l-91 -53l91 -53l-56 -97l-83 48v-88h-110v88l-83 -48z" />
<glyph unicode="+" horiz-adv-x="520" d="M20 277v135h168v168h144v-168h168v-135h-168v-167h-144v167h-168z" />
<glyph unicode="," horiz-adv-x="220" d="M0 -180l65 290h145l-105 -290h-105z" />
<glyph unicode="-" horiz-adv-x="500" d="M20 277v135h460v-135h-460z" />
<glyph unicode="." horiz-adv-x="230" d="M30 27v85l42 42h81l47 -42v-85l-42 -42h-86z" />
<glyph unicode="/" horiz-adv-x="577" d="M0 52l451 688l126 -82l-451 -688z" />
<glyph unicode="0" horiz-adv-x="655" d="M50 126v458l139 126h277l139 -126v-458l-139 -126h-277zM195 254l201 321h-155l-46 -42v-279zM259 135h155l46 42v279z" />
<glyph unicode="1" horiz-adv-x="411" d="M10 532l178 178h122v-575h91v-135h-337v135h91v317l13 35l-3 2l-21 -35l-28 -28z" />
<glyph unicode="2" horiz-adv-x="596" d="M20 663l151 47h268l127 -128v-180l-99 -111l-260 -146h359v-145h-535v214l338 189l42 48v74l-40 40h-181l-127 -40z" />
<glyph unicode="3" horiz-adv-x="596" d="M10 49l47 139l126 -43h189l39 40v60l-39 40h-210v126l162 143l35 21l-2 3l-35 -13h-290v145h534v-122l-179 -157l-35 -21l2 -3l35 13h49l128 -127v-166l-128 -127h-284z" />
<glyph unicode="4" horiz-adv-x="616" d="M10 131v141l395 438h128v-434h73v-145h-73v-131h-155v131h-368zM183 266l2 -3l35 13h158v174l13 35l-3 2l-21 -35l-149 -165z" />
<glyph unicode="5" horiz-adv-x="607" d="M40 50l46 138l129 -43h166l41 40v78l-41 40h-324v407h510v-145h-355v-117h237l128 -127v-194l-128 -127h-259z" />
<glyph unicode="6" horiz-adv-x="631" d="M50 128v454l127 128h280l144 -48l-46 -138l-123 41h-187l-40 -40v-89l63 14h200l127 -128v-194l-127 -128h-291zM205 185l40 -40h155l40 40v80l-40 40h-157l-38 -9v-111z" />
<glyph unicode="7" horiz-adv-x="555" d="M10 565v145h525v-176l-215 -370v-164h-155v202l211 363h-366z" />
<glyph unicode="8" horiz-adv-x="648" d="M50 127v180l74 58l-69 55v183l128 127h282l128 -127v-183l-69 -55l74 -58v-180l-128 -127h-292zM205 186l41 -41h156l41 41v65l-52 41h-134l-52 -41v-65zM210 471q8 -6 43 -34h142q35 28 43 34v74l-40 40h-148l-40 -40v-74z" />
<glyph unicode="9" horiz-adv-x="631" d="M30 48l46 138l123 -41h187l40 40v89l-63 -14h-200l-127 128v194l127 128h291l127 -128v-454l-127 -128h-280zM191 445l40 -40h157l38 9v111l-40 40h-155l-40 -40v-80z" />
<glyph unicode=":" horiz-adv-x="230" d="M30 27v85l42 42h81l47 -42v-85l-42 -42h-86zM30 353v85l42 42h81l47 -42v-85l-42 -42h-86z" />
<glyph unicode=";" horiz-adv-x="237" d="M0 -180l65 290h145l-105 -290h-105zM37 353v85l42 42h81l47 -42v-85l-42 -42h-86z" />
<glyph unicode="&#x3c;" horiz-adv-x="389" d="M20 223v80l261 233l98 -110l-183 -163l183 -163l-98 -110z" />
<glyph unicode="=" horiz-adv-x="500" d="M20 177v125h460v-125h-460zM20 388v125h460v-125h-460z" />
<glyph unicode="&#x3e;" horiz-adv-x="389" d="M10 100l183 163l-183 163l98 110l261 -233v-80l-261 -233z" />
<glyph unicode="?" horiz-adv-x="587" d="M0 575l136 135h294l127 -127v-183l-196 -128v-62h-155v125l196 128v63l-39 39h-159l-98 -97zM199 27v85l42 42h81l47 -42v-85l-42 -42h-86z" />
<glyph unicode="@" horiz-adv-x="949" d="M60 32v532l160 146h509l160 -146v-408l-108 -107h-190l-17 75l-55 -63h-161l-98 97v101l98 97h186v45l-19 19h-104l-115 -39l-37 109l133 45h169l108 -107v-198l13 -56h32l20 20v316l-71 65h-397l-71 -65v-424l71 -65h480v-135h-536zM395 191l25 -25h79l45 52v33h-124 l-25 -25v-35z" />
<glyph unicode="A" horiz-adv-x="620" d="M0 29l229 681h162l229 -681l-146 -49l-54 159h-225l-49 -159zM239 274h142l-56 166l-13 74h-4l-13 -74z" />
<glyph unicode="B" horiz-adv-x="645" d="M60 0v710h416l108 -108v-190l-53 -42l74 -58v-184l-128 -128h-417zM215 145h197l38 38v73l-53 41h-182v-152zM215 442h187l27 21v77l-25 25h-189v-123z" />
<glyph unicode="C" d="M50 128v454l128 128h289l128 -128v-132h-155v75l-40 40h-155l-40 -40v-340l40 -40h162l96 96l106 -106l-135 -135h-296z" />
<glyph unicode="D" horiz-adv-x="656" d="M60 0v710h418l128 -129v-452l-128 -129h-418zM215 145h196l40 40v340l-40 40h-196v-420z" />
<glyph unicode="E" horiz-adv-x="573" d="M60 0v710h493v-145h-338v-122h296v-145h-296v-153h338v-145h-493z" />
<glyph unicode="F" horiz-adv-x="573" d="M60 0v710h493v-145h-338v-150h296v-145h-296v-270h-155z" />
<glyph unicode="G" horiz-adv-x="645" d="M50 128v454l128 128h289l128 -128v-132h-155v75l-40 40h-155l-40 -40v-340l40 -40h155q0 1 16 16t24 24v81h-153v125h308v-264l-127 -127h-290z" />
<glyph unicode="H" horiz-adv-x="665" d="M60 0v710h155v-278h235v278h155v-710h-155v287h-235v-287h-155z" />
<glyph unicode="I" horiz-adv-x="407" d="M30 0v135h96v440h-96v135h347v-135h-96v-440h96v-135h-347z" />
<glyph unicode="J" horiz-adv-x="566" d="M0 141l105 106l103 -102h113l40 40v380h-138v145h293v-582l-128 -128h-246z" />
<glyph unicode="K" horiz-adv-x="594" d="M60 0v710h155v-273l264 293l114 -102l-215 -239l215 -325l-126 -84l-197 297l-55 -61v-216h-155z" />
<glyph unicode="L" horiz-adv-x="553" d="M60 0v710h155v-565h328v-145h-483z" />
<glyph unicode="M" horiz-adv-x="852" d="M60 0v710h143l209 -341l12 -38h4l12 38l209 341h143v-710h-155v378l11 67h-4l-26 -66l-139 -227h-106l-139 227l-26 66h-4l11 -67v-378h-155z" />
<glyph unicode="N" horiz-adv-x="666" d="M60 0v710h139l233 -373l26 -66h4l-11 67v372h155v-710h-139l-233 373l-26 66h-4l11 -67v-372h-155z" />
<glyph unicode="O" horiz-adv-x="675" d="M50 126v458l139 126h297l139 -126v-458l-139 -126h-297zM205 187l46 -42h173l46 42v336l-46 42h-173l-46 -42v-336z" />
<glyph unicode="P" horiz-adv-x="635" d="M60 0v710h417l128 -127v-229l-128 -127h-262v-227h-155zM215 372h195l40 40v113l-40 40h-195v-193z" />
<glyph unicode="Q" horiz-adv-x="675" d="M50 126v458l139 126h297l139 -126v-458l-139 -126h-71v-138h-150v138h-76zM205 187l46 -42h14v60h145v-60h14l46 42v336l-46 42h-173l-46 -42v-336z" />
<glyph unicode="R" horiz-adv-x="641" d="M60 0v710h434l111 -110v-226l-111 -110h-36l-35 17l-2 -3l35 -25l165 -169l-111 -109l-282 289h-13v-264h-155zM215 409h199l36 37v82l-36 37h-199v-156z" />
<glyph unicode="S" horiz-adv-x="600" d="M30 49l47 139l126 -43h173l34 34v25l-13 27l-319 138l-42 79v135l127 127h263l144 -49l-47 -139l-126 43h-172l-34 -34v-25l13 -27l319 -138l42 -79v-135l-127 -127h-264z" />
<glyph unicode="T" horiz-adv-x="565" d="M10 565v145h545v-145h-195v-565h-155v565h-195z" />
<glyph unicode="U" horiz-adv-x="645" d="M50 127v583h155v-525l40 -40h155l40 40v525h155v-583l-128 -127h-289z" />
<glyph unicode="V" horiz-adv-x="606" d="M0 682l143 48l145 -437l13 -74h4l13 74l145 437l143 -48l-226 -682h-154z" />
<glyph unicode="W" horiz-adv-x="916" d="M0 686l145 44l111 -373l12 -69h4l14 69l103 322h138l103 -322l14 -69h4l12 69l111 373l145 -44l-205 -686h-118l-121 378l-12 69h-4l-12 -69l-121 -378h-118z" />
<glyph unicode="X" horiz-adv-x="606" d="M5 68l203 285l-199 291l132 91l148 -217l12 -38h4l12 38l148 217l132 -91l-199 -291l203 -285l-131 -93l-153 215l-12 38h-4l-12 -38l-153 -215z" />
<glyph unicode="Y" horiz-adv-x="604" d="M0 665l139 70l149 -295l12 -69h4l12 69l149 295l139 -70l-225 -445v-220h-155v222z" />
<glyph unicode="Z" horiz-adv-x="585" d="M25 0v113l318 441l35 25l-2 3l-35 -17h-308v145h527v-115l-318 -439l-35 -25l2 -3l35 17h308v-145h-527z" />
<glyph unicode="[" horiz-adv-x="299" d="M40 -178v898h259v-135h-104v-628h104v-135h-259z" />
<glyph unicode="\" horiz-adv-x="577" d="M0 658l126 82l451 -688l-126 -82z" />
<glyph unicode="]" horiz-adv-x="299" d="M0 -43h104v628h-104v135h259v-898h-259v135z" />
<glyph unicode="^" horiz-adv-x="558" d="M0 424l222 286h114l222 -286l-118 -92l-161 207l-161 -207z" />
<glyph unicode="_" horiz-adv-x="506" d="M0 0h506v-145h-506v145z" />
<glyph unicode="`" horiz-adv-x="280" d="M-10 710h159l141 -230h-140z" />
<glyph unicode="a" horiz-adv-x="579" d="M30 107v130l108 107h220v45l-19 19h-138l-125 -40l-41 129l147 46h223l108 -107v-267l36 -156l-123 -28l-18 78l-55 -63h-215zM185 144l19 -19h109l45 52v42h-154l-19 -19v-56z" />
<glyph unicode="b" horiz-adv-x="601" d="M30 678l146 48l48 -146v-74l50 37h169l108 -107v-349l-108 -107h-266l-108 107v472zM224 144l19 -19h134l19 19v235l-19 19h-103l-50 -37v-217z" />
<glyph unicode="c" horiz-adv-x="554" d="M50 107v329l108 107h266l108 -107v-111h-155v54l-19 19h-134l-19 -19v-215l19 -19h151l125 40l44 -138l-150 -47h-236z" />
<glyph unicode="d" horiz-adv-x="598" d="M50 107v329l108 107h169l50 -37v204h155v-541l36 -156l-123 -28l-18 78l-55 -63h-214zM205 164l19 -19h108l45 52v164l-50 37h-103l-19 -19v-215z" />
<glyph unicode="e" horiz-adv-x="569" d="M50 107v329l108 107h266l108 -107v-139l-98 -97h-229v-46l19 -19h149l125 40l41 -129l-147 -46h-234zM205 325h158l14 14v60l-19 19h-134l-19 -19v-74z" />
<glyph unicode="f" horiz-adv-x="448" d="M20 323v145h90v135l107 107h141l150 -47l-43 -137l-125 39h-51l-24 -24v-73h135v-145h-135v-323h-155v323h-90z" />
<glyph unicode="g" horiz-adv-x="572" d="M30 -122l38 119l125 -40h183l13 13v9l-13 13h-251l-85 85v115l48 48l-48 48v148l108 107h210l156 36l28 -123l-78 -18l63 -55v-124l-108 -107h-231l-13 -13v-9l13 -13h251l85 -85v-115l-85 -85h-262zM195 320l38 -38h120l19 19v67l-52 45h-106l-19 -19v-74z" />
<glyph unicode="h" horiz-adv-x="601" d="M30 678l146 48l48 -146v-74l50 37h169l108 -107v-436h-155v379l-19 19h-103l-50 -37v-361h-155v559z" />
<glyph unicode="i" horiz-adv-x="277" d="M30 500l146 48l48 -146v-402h-155v381zM67 627v75l42 42h71l47 -42v-75l-42 -42h-76z" />
<glyph unicode="j" horiz-adv-x="305" d="M-60 -51l133 47l24 33v352l-39 119l146 48l48 -146v-419l-78 -108l-185 -65zM95 627v75l42 42h71l47 -42v-75l-42 -42h-76z" />
<glyph unicode="k" horiz-adv-x="535" d="M30 678l146 48l48 -146v-220l205 203l106 -108l-172 -170l172 -208l-117 -97l-166 201l-28 -27v-154h-155v559z" />
<glyph unicode="l" horiz-adv-x="274" d="M30 678l146 48l48 -146v-580h-155v559z" />
<glyph unicode="m" horiz-adv-x="869" d="M30 530l123 28l18 -78l55 63h170l47 -51l47 51h221l108 -107v-436h-155v379l-19 19h-98l-27 -29v-369h-155v369l-27 29h-72l-45 -52v-346h-155v374z" />
<glyph unicode="n" horiz-adv-x="599" d="M30 530l123 28l18 -78l55 63h215l108 -107v-436h-155v379l-19 19h-109l-45 -52v-346h-155v374z" />
<glyph unicode="o" horiz-adv-x="587" d="M50 108v327l107 108h273l107 -108v-327l-107 -108h-273zM205 164l19 -19h139l19 19v215l-19 19h-139l-19 -19v-215z" />
<glyph unicode="p" horiz-adv-x="598" d="M30 530l123 28l18 -78l55 63h214l108 -107v-329l-108 -107h-169l-50 37v-205h-155v542zM221 182l50 -37h103l19 19v215l-19 19h-108l-45 -52v-164z" />
<glyph unicode="q" horiz-adv-x="591" d="M50 107v349l108 107h266l108 -107v-472l39 -119l-146 -48l-48 146v74l-50 -37h-169zM205 164l19 -19h103l50 37v217l-19 19h-134l-19 -19v-235z" />
<glyph unicode="r" horiz-adv-x="520" d="M30 530l123 28l18 -78l55 63h188l116 -114l-103 -105l-76 74h-85l-45 -52v-346h-155v374z" />
<glyph unicode="s" horiz-adv-x="525" d="M20 48l43 130l130 -43h128l20 20v15l-8 12l-260 63l-45 74v117l107 107h225l145 -48l-43 -130l-130 43h-129l-20 -20v-14l8 -11l260 -63l45 -74v-119l-107 -107h-224z" />
<glyph unicode="t" horiz-adv-x="518" d="M30 378v145h90v157h155v-157h135v-145h-135v-209l24 -24h52q16 5 38 12t48.5 15t37.5 12l43 -137l-150 -47h-141l-107 107v271h-90z" />
<glyph unicode="u" horiz-adv-x="599" d="M50 107v436h155v-379l19 -19h109l45 52v346h155v-374l36 -156l-123 -28l-18 78l-55 -63h-215z" />
<glyph unicode="v" horiz-adv-x="540" d="M0 507l139 56l116 -286l13 -74h4l13 74l116 286l139 -56l-206 -507h-128z" />
<glyph unicode="w" horiz-adv-x="756" d="M0 519l137 44l73 -238l12 -69h4l14 69l71 192h134l71 -192l14 -69h4l12 69l73 238l137 -44l-161 -519h-107l-96 255l-12 69h-4l-12 -69l-96 -255h-107z" />
<glyph unicode="x" horiz-adv-x="520" d="M5 70l162 201l-162 202l119 95l122 -153l12 -38h4l12 38l122 153l119 -95l-162 -202l162 -201l-119 -96l-122 151l-12 38h-4l-12 -38l-122 -151z" />
<glyph unicode="y" horiz-adv-x="549" d="M0 504l140 59l132 -314l13 -69h4l13 69l105 314l142 -47l-201 -604l-80 -80h-185v145h123l17 17l7 22h-25z" />
<glyph unicode="z" horiz-adv-x="506" d="M20 0v117l243 280l35 25l-2 3l-35 -17h-237v135h462v-118l-243 -279l-35 -25l2 -3l35 17h237v-135h-462z" />
<glyph unicode="{" horiz-adv-x="386" d="M20 238v66l88 67v215l83 132l163 37l32 -140l-95 -22l-28 -44v-226l-68 -52l68 -52v-226l28 -44l95 -22l-32 -140l-163 37l-83 132v215z" />
<glyph unicode="|" horiz-adv-x="276" d="M60 -168v878h156v-878h-156z" />
<glyph unicode="}" horiz-adv-x="386" d="M0 -73l95 22l28 44v226l68 52l-68 52v226l-28 44l-95 22l32 140l163 -37l83 -132v-215l88 -67v-66l-88 -67v-215l-83 -132l-163 -37z" />
<glyph unicode="~" horiz-adv-x="667" d="M20 349l105 106l103 -102h8l128 128h141l142 -141l-105 -106l-103 102h-8l-128 -128h-141z" />
<glyph unicode="&#xa2;" horiz-adv-x="554" d="M50 107v329l108 107h62v70h139v-70h65l108 -107v-111h-155v54l-19 19h-134l-19 -19v-215l19 -19h151l125 40l44 -138l-150 -47h-35v-70h-139v70h-62z" />
<glyph unicode="&#xa5;" horiz-adv-x="604" d="M0 665l139 70l149 -295l12 -69h4l12 69l149 295l139 -70l-165 -325h92v-100h-142l-10 -20v-20h152v-100h-152v-100h-155v100h-152v100h152v22l-9 18h-143v100h92z" />
<glyph unicode="&#xa9;" horiz-adv-x="899" d="M50 146v418l160 146h479l160 -146v-418l-160 -146h-479zM195 200l71 -65h367l71 65v310l-71 65h-367l-71 -65v-310zM260 268v174l92 93h195l92 -93v-75h-125v32l-21 21h-87l-21 -21v-88l21 -21h105l99 31l35 -111l-111 -35h-182z" />
<glyph unicode="&#xab;" horiz-adv-x="756" d="M20 263l310 277l99 -110l-187 -167l187 -167l-99 -110zM337 263l310 277l99 -110l-187 -167l187 -167l-99 -110z" />
<glyph unicode="&#xae;" horiz-adv-x="899" d="M50 146v418l160 146h479l160 -146v-418l-160 -146h-479zM195 200l71 -65h367l71 65v310l-71 65h-367l-71 -65v-310zM260 175v360h336l53 -52v-149l-53 -52h-22l-35 17l-2 -3l35 -25l82 -78l-20 -18h-122l-111 107h-16v-107h-125zM385 382h124l15 15v23l-15 15h-124v-53z " />
<glyph unicode="&#xbb;" horiz-adv-x="756" d="M10 96l187 167l-187 167l99 110l310 -277l-310 -277zM327 96l187 167l-187 167l99 110l310 -277l-310 -277z" />
<glyph unicode="&#x401;" horiz-adv-x="573" d="M60 0v710h493v-145h-338v-122h296v-145h-296v-153h338v-145h-493zM126 808v75l42 42h71l47 -42v-75l-42 -42h-76zM336 808v75l42 42h71l47 -42v-75l-42 -42h-76z" />
<glyph unicode="&#x402;" horiz-adv-x="702" d="M0 565v145h395v-145h-120v-119l63 14h217l107 -108v-258l-78 -108l-160 -56l-49 139l108 38l24 33v158l-17 17h-177l-38 -9v-306h-155v565h-120z" />
<glyph unicode="&#x403;" horiz-adv-x="552" d="M60 0v710h482v-145h-327v-565h-155zM225 765l100 170h145l-120 -170h-125z" />
<glyph unicode="&#x404;" d="M50 128v454l128 128h289l128 -128v-132h-155v75l-40 40h-155l-40 -40v-111h224v-135h-224v-94l40 -40h162l96 96l106 -106l-135 -135h-296z" />
<glyph unicode="&#x405;" horiz-adv-x="600" d="M30 49l47 139l126 -43h173l34 34v25l-13 27l-319 138l-42 79v135l127 127h263l144 -49l-47 -139l-126 43h-172l-34 -34v-25l13 -27l319 -138l42 -79v-135l-127 -127h-264z" />
<glyph unicode="&#x406;" horiz-adv-x="407" d="M30 0v135h96v440h-96v135h347v-135h-96v-440h96v-135h-347z" />
<glyph unicode="&#x407;" horiz-adv-x="407" d="M18 808v75l42 42h71l47 -42v-75l-42 -42h-76zM30 0v135h96v440h-96v135h347v-135h-96v-440h96v-135h-347zM228 808v75l42 42h71l47 -42v-75l-42 -42h-76z" />
<glyph unicode="&#x408;" horiz-adv-x="566" d="M0 141l105 106l103 -102h113l40 40v380h-138v145h293v-582l-128 -128h-246z" />
<glyph unicode="&#x409;" horiz-adv-x="1015" d="M0 118l93 32l30 30l61 530h442v-238h232l127 -129v-214l-127 -129h-387v565h-147l-51 -449l-86 -88l-140 -48zM626 145h164l40 41v100l-40 41h-164v-182z" />
<glyph unicode="&#x40a;" horiz-adv-x="964" d="M60 0v710h155v-253h205v253h155v-253h232l127 -129v-199l-127 -129h-387v312h-205v-312h-155zM575 145h164l40 41v85l-40 41h-164v-167z" />
<glyph unicode="&#x40b;" horiz-adv-x="702" d="M0 565v145h395v-145h-120v-119l63 14h217l107 -108v-352h-155v298l-17 17h-177l-38 -9v-306h-155v565h-120z" />
<glyph unicode="&#x40c;" horiz-adv-x="620" d="M60 0v710h156v-278h53l144 250l153 48l44 -140l-86 -27l-120 -208l125 -208l86 -27l-44 -140l-153 48l-156 259h-46v-287h-156zM240 730l100 170h145l-120 -170h-125z" />
<glyph unicode="&#x40e;" horiz-adv-x="615" d="M0 664l133 71l175 -332l14 -69h4l12 69l136 332l141 -58l-243 -593l-88 -84h-169v145h110l18 17l10 22zM113 837v124h135v-61l18 -18h90l18 18v61h135v-124l-86 -85h-224z" />
<glyph unicode="&#x40f;" horiz-adv-x="664" d="M60 0v710h155v-565h234v565h155v-710h-194v-168h-155v168h-195z" />
<glyph unicode="&#x410;" horiz-adv-x="620" d="M0 29l229 681h162l229 -681l-146 -49l-54 159h-225l-49 -159zM239 274h142l-56 166l-13 74h-4l-13 -74z" />
<glyph unicode="&#x411;" horiz-adv-x="645" d="M60 0v710h503v-145h-348v-118h263l127 -129v-189l-127 -129h-418zM215 145h194l41 41v75l-41 41h-194v-157z" />
<glyph unicode="&#x412;" horiz-adv-x="645" d="M60 0v710h416l108 -108v-190l-53 -42l74 -58v-184l-128 -128h-417zM215 145h197l38 38v73l-53 41h-182v-152zM215 442h187l27 21v77l-25 25h-189v-123z" />
<glyph unicode="&#x413;" horiz-adv-x="552" d="M60 0v710h482v-145h-327v-565h-155z" />
<glyph unicode="&#x414;" horiz-adv-x="716" d="M0 145h73l35 85l59 480h456v-565h73v-313h-155v168h-386v-168h-155v313zM237 145h231v420h-163l-44 -362z" />
<glyph unicode="&#x415;" horiz-adv-x="573" d="M60 0v710h493v-145h-338v-122h296v-145h-296v-153h338v-145h-493z" />
<glyph unicode="&#x416;" horiz-adv-x="929" d="M5 120l86 27l125 208l-120 208l-86 27l44 140l153 -48l144 -250h36v278h155v-278h36l144 250l153 48l44 -140l-86 -27l-120 -208l125 -208l86 -27l-44 -140l-153 48l-156 259h-29v-287h-155v287h-29l-156 -259l-153 -48z" />
<glyph unicode="&#x417;" horiz-adv-x="602" d="M10 49l45 137l125 -41h187l40 40v60l-52 41h-184v145h189l40 32v68l-35 34h-179l-125 -41l-45 137l149 49h269l121 -121v-177l-67 -53l74 -58v-174l-127 -127h-276z" />
<glyph unicode="&#x418;" horiz-adv-x="666" d="M60 0v710h155v-389l-11 -67h4l26 66l232 390h140v-710h-155v389l11 67h-4l-26 -66l-232 -390h-140z" />
<glyph unicode="&#x419;" horiz-adv-x="666" d="M60 0v710h155v-389l-11 -67h4l26 66l232 390h140v-710h-155v389l11 67h-4l-26 -66l-232 -390h-140zM135 850v124h135v-61l18 -18h90l18 18v61h135v-124l-86 -85h-224z" />
<glyph unicode="&#x41a;" horiz-adv-x="620" d="M60 0v710h156v-278h53l144 250l153 48l44 -140l-86 -27l-120 -208l125 -208l86 -27l-44 -140l-153 48l-156 259h-46v-287h-156z" />
<glyph unicode="&#x41b;" horiz-adv-x="716" d="M0 118l93 32l30 30l61 530h472v-710h-155v565h-177l-51 -449l-86 -88l-140 -48z" />
<glyph unicode="&#x41c;" horiz-adv-x="852" d="M60 0v710h143l209 -341l12 -38h4l12 38l209 341h143v-710h-155v378l11 67h-4l-26 -66l-139 -227h-106l-139 227l-26 66h-4l11 -67v-378h-155z" />
<glyph unicode="&#x41d;" horiz-adv-x="665" d="M60 0v710h155v-278h235v278h155v-710h-155v287h-235v-287h-155z" />
<glyph unicode="&#x41e;" horiz-adv-x="675" d="M50 126v458l139 126h297l139 -126v-458l-139 -126h-297zM205 187l46 -42h173l46 42v336l-46 42h-173l-46 -42v-336z" />
<glyph unicode="&#x41f;" horiz-adv-x="665" d="M60 0v710h545v-710h-155v565h-235v-565h-155z" />
<glyph unicode="&#x420;" horiz-adv-x="635" d="M60 0v710h417l128 -127v-229l-128 -127h-262v-227h-155zM215 372h195l40 40v113l-40 40h-195v-193z" />
<glyph unicode="&#x421;" d="M50 128v454l128 128h289l128 -128v-132h-155v75l-40 40h-155l-40 -40v-340l40 -40h162l96 96l106 -106l-135 -135h-296z" />
<glyph unicode="&#x422;" horiz-adv-x="565" d="M10 565v145h545v-145h-195v-565h-155v565h-195z" />
<glyph unicode="&#x423;" horiz-adv-x="615" d="M0 664l133 71l175 -332l14 -69h4l12 69l136 332l141 -58l-243 -593l-88 -84h-169v145h110l18 17l10 22z" />
<glyph unicode="&#x424;" horiz-adv-x="835" d="M40 198v344l128 128h172v105h155v-105h172l128 -128v-344l-128 -128h-172v-95h-155v95h-172zM195 245l40 -40h105v330h-105l-40 -40v-250zM495 205h105l40 40v250l-40 40h-105v-330z" />
<glyph unicode="&#x425;" horiz-adv-x="606" d="M5 68l203 285l-199 291l132 91l148 -217l12 -38h4l12 38l148 217l132 -91l-199 -291l203 -285l-131 -93l-153 215l-12 38h-4l-12 -38l-153 -215z" />
<glyph unicode="&#x426;" horiz-adv-x="708" d="M60 0v710h155v-565h234v565h155v-565h84v-313h-155v168h-473z" />
<glyph unicode="&#x427;" horiz-adv-x="642" d="M40 343v367h155v-313l17 -17h177l38 9v321h155v-710h-155v249l-63 -14h-217z" />
<glyph unicode="&#x428;" horiz-adv-x="1027" d="M60 0v710h154v-565h222v565h155v-565h221v565h155v-710h-907z" />
<glyph unicode="&#x429;" horiz-adv-x="1042" d="M60 0v710h155v-565h207v565h155v-565h206v565h155v-565h84v-313h-155v168h-807z" />
<glyph unicode="&#x42a;" horiz-adv-x="737" d="M20 565v145h298v-238h262l127 -129v-214l-127 -129h-417v565h-143zM318 145h194l40 41v100l-40 41h-194v-182z" />
<glyph unicode="&#x42b;" horiz-adv-x="904" d="M60 0v710h155v-238h262l127 -129v-214l-127 -129h-417zM215 145h194l40 41v100l-40 41h-194v-182zM689 0v710h155v-710h-155z" />
<glyph unicode="&#x42c;" horiz-adv-x="634" d="M60 0v710h155v-238h262l127 -129v-214l-127 -129h-417zM215 145h194l40 41v100l-40 41h-194v-182z" />
<glyph unicode="&#x42d;" d="M10 135l106 106l96 -96h162l40 40v94h-224v135h224v111l-40 40h-155l-40 -40v-75h-155v132l128 128h289l128 -128v-454l-128 -128h-296z" />
<glyph unicode="&#x42e;" horiz-adv-x="909" d="M60 0v710h155v-278h85v152l139 126h281l139 -126v-458l-139 -126h-281l-139 126v161h-85v-287h-155zM455 186l45 -41h159l45 41v338l-45 41h-159l-45 -41v-338z" />
<glyph unicode="&#x42f;" horiz-adv-x="654" d="M30 113l86 27l79 101l35 25l-2 3l-35 -17h-33l-111 110v238l111 110h434v-710h-155v252h-40l-174 -224l-153 -48zM204 433l36 -36h199v168h-199l-36 -36v-96z" />
<glyph unicode="&#x430;" horiz-adv-x="579" d="M30 107v130l108 107h220v45l-19 19h-138l-125 -40l-41 129l147 46h223l108 -107v-267l36 -156l-123 -28l-18 78l-55 -63h-215zM185 144l19 -19h109l45 52v42h-154l-19 -19v-56z" />
<glyph unicode="&#x431;" horiz-adv-x="585" d="M50 107v425l138 142l185 36l98 69l89 -126l-115 -81l-191 -37l-49 -50v-40l50 37h175l107 -107v-268l-107 -107h-273zM205 164l19 -19h139l19 19v154l-19 19h-108l-50 -37v-136z" />
<glyph unicode="&#x432;" horiz-adv-x="572" d="M50 0v543h375l90 -90v-145l-42 -31l59 -43v-128l-106 -106h-376zM205 125h153l19 19v45l-35 26h-137v-90zM205 340h134l21 15v44l-19 19h-136v-78z" />
<glyph unicode="&#x433;" horiz-adv-x="470" d="M50 0v543h405v-146h-249v-397h-156z" />
<glyph unicode="&#x434;" d="M0 135h62l36 93l34 315h406v-408h61v-285h-155v150h-289v-150h-155v285zM225 135h158v263h-112l-22 -198z" />
<glyph unicode="&#x435;" horiz-adv-x="569" d="M50 107v329l108 107h266l108 -107v-139l-98 -97h-229v-46l19 -19h149l125 40l41 -129l-147 -46h-234zM205 325h158l14 14v60l-19 19h-134l-19 -19v-74z" />
<glyph unicode="&#x436;" horiz-adv-x="799" d="M10 108l74 38l95 123l-91 125l-78 41l69 133l115 -60l128 -176v211h155v-211l128 176l115 60l69 -133l-78 -41l-91 -125l95 -123l74 -38l-68 -133l-105 54l-139 179v-208h-155v208l-139 -179l-105 -54z" />
<glyph unicode="&#x437;" horiz-adv-x="547" d="M20 46l41 129l125 -40h147l19 19v31l-33 25h-173v125h168l33 23v36l-15 14h-144l-121 -41l-43 126l148 50h227l103 -103v-127l-55 -40l60 -44v-122l-107 -107h-233z" />
<glyph unicode="&#x438;" horiz-adv-x="600" d="M30 515l146 48l48 -146v-131l-11 -67h4l26 66l165 258h142v-543h-155v257l11 67h-4l-26 -66l-165 -258h-142v396q-22 68 -39 119z" />
<glyph unicode="&#x439;" horiz-adv-x="600" d="M30 515l146 48l48 -146v-131l-11 -67h4l26 66l165 258h142v-543h-155v257l11 67h-4l-26 -66l-165 -258h-142v396q-22 68 -39 119zM114 693v105h135v-45l15 -15h91l15 15v45h135v-105l-76 -75h-239z" />
<glyph unicode="&#x43a;" horiz-adv-x="538" d="M50 0v543h155v-211h11l128 176l115 60l69 -133l-78 -41l-91 -125l95 -123l74 -38l-68 -133l-105 54l-138 178h-12v-207h-155z" />
<glyph unicode="&#x43b;" horiz-adv-x="612" d="M0 118l75 27l33 34l45 364h409v-543h-155v398h-114l-36 -291l-77 -80l-131 -47z" />
<glyph unicode="&#x43c;" horiz-adv-x="706" d="M50 0v543h143l146 -243l12 -38h4l12 38l146 243h143v-543h-155v228l11 67h-4l-26 -66l-73 -122h-112l-73 122l-26 66h-4l11 -67v-228h-155z" />
<glyph unicode="&#x43d;" horiz-adv-x="601" d="M30 515l146 48l48 -146v-75h172v201h155v-543h-155v197h-172v-197h-155v396z" />
<glyph unicode="&#x43e;" horiz-adv-x="587" d="M50 108v327l107 108h273l107 -108v-327l-107 -108h-273zM205 164l19 -19h139l19 19v215l-19 19h-139l-19 -19v-215z" />
<glyph unicode="&#x43f;" horiz-adv-x="582" d="M50 0v543h482v-543h-155v398h-172v-398h-155z" />
<glyph unicode="&#x440;" horiz-adv-x="598" d="M30 530l123 28l18 -78l55 63h214l108 -107v-329l-108 -107h-169l-50 37v-205h-155v542zM221 182l50 -37h103l19 19v215l-19 19h-108l-45 -52v-164z" />
<glyph unicode="&#x441;" horiz-adv-x="554" d="M50 107v329l108 107h266l108 -107v-111h-155v54l-19 19h-134l-19 -19v-215l19 -19h151l125 40l44 -138l-150 -47h-236z" />
<glyph unicode="&#x442;" horiz-adv-x="491" d="M15 398v145h461v-145h-153v-398h-155v398h-153z" />
<glyph unicode="&#x443;" horiz-adv-x="549" d="M0 504l140 59l132 -314l13 -69h4l13 69l105 314l142 -47l-201 -604l-80 -80h-185v145h123l17 17l7 22h-25z" />
<glyph unicode="&#x444;" horiz-adv-x="755" d="M50 106v331l106 106h98l46 -13v33l-39 119l146 48l48 -146v-54l46 13h98l106 -106v-331l-106 -106h-98l-46 13v-181h-155v181l-46 -13h-98zM205 164l19 -19h65l16 4v245l-16 4h-65l-19 -19v-215zM450 149l16 -4h65l19 19v215l-19 19h-65l-16 -4v-245z" />
<glyph unicode="&#x445;" horiz-adv-x="520" d="M5 70l162 201l-162 202l119 95l122 -153l12 -38h4l12 38l122 153l119 -95l-162 -202l162 -201l-119 -96l-122 151l-12 38h-4l-12 -38l-122 -151z" />
<glyph unicode="&#x446;" horiz-adv-x="615" d="M50 0v543h155v-408h172v408h155v-408h63v-285h-155v150h-390z" />
<glyph unicode="&#x447;" horiz-adv-x="560" d="M40 258v285h155v-227l19 -19h125l16 4v242h155v-543h-155v165q-16 -5 -46 -13h-163z" />
<glyph unicode="&#x448;" horiz-adv-x="853" d="M50 0v543h155v-408h144v408h155v-408h144v408h155v-543h-753z" />
<glyph unicode="&#x449;" horiz-adv-x="886" d="M50 0v543h155v-408h144v408h155v-408h144v408h155v-408h63v-285h-155v150h-661z" />
<glyph unicode="&#x44a;" horiz-adv-x="648" d="M10 398v145h290v-170h221l107 -107v-159l-107 -107h-376v398h-135zM300 125h154l19 19v85l-19 19h-154v-123z" />
<glyph unicode="&#x44b;" horiz-adv-x="798" d="M50 0v543h155v-170h221l107 -107v-159l-107 -107h-376zM205 125h154l19 19v85l-19 19h-154v-123zM593 0v543h155v-543h-155z" />
<glyph unicode="&#x44c;" horiz-adv-x="553" d="M50 0v543h155v-170h221l107 -107v-159l-107 -107h-376zM205 125h154l19 19v85l-19 19h-154v-123z" />
<glyph unicode="&#x44d;" horiz-adv-x="551" d="M10 46l41 129l125 -40h151l19 19v53h-162v125h162v57l-19 19h-134l-19 -19v-64h-155v111l108 107h266l108 -107v-329l-108 -107h-236z" />
<glyph unicode="&#x44e;" horiz-adv-x="782" d="M50 0v543h155v-201h60v93l107 108h253l107 -108v-327l-107 -108h-253l-107 108v89h-60v-197h-155zM420 164l19 -19h119l19 19v215l-19 19h-119l-19 -19v-215z" />
<glyph unicode="&#x44f;" horiz-adv-x="572" d="M30 96l74 38l43 45l35 25l-2 3l-35 -17h-23l-82 81v191l82 81h400v-543h-155v190h-18l-152 -161l-105 -54zM195 331l15 -16h157v103h-157l-15 -15v-72z" />
<glyph unicode="&#x451;" horiz-adv-x="569" d="M50 107v329l108 107h266l108 -107v-139l-98 -97h-229v-46l19 -19h149l125 40l41 -129l-147 -46h-234zM105 637v75l42 42h71l47 -42v-75l-42 -42h-76zM205 325h158l14 14v60l-19 19h-134l-19 -19v-74zM317 637v75l42 42h71l47 -42v-75l-42 -42h-76z" />
<glyph unicode="&#x452;" horiz-adv-x="612" d="M0 460v120h83l-32 98l146 48l48 -146h135v-120h-135v-74l50 37h169l108 -107v-222l-78 -108l-160 -56l-49 139l108 38l24 33v119l-19 19h-103l-50 -37v-241h-155v460h-90z" />
<glyph unicode="&#x453;" horiz-adv-x="470" d="M50 0v543h405v-146h-249v-397h-156zM180 598l100 170h145l-120 -170h-125z" />
<glyph unicode="&#x454;" horiz-adv-x="554" d="M50 107v329l108 107h266l108 -107v-111h-155v64l-19 19h-134l-19 -19v-57h162v-125h-162v-53l19 -19h151l125 40l41 -129l-147 -46h-236z" />
<glyph unicode="&#x455;" horiz-adv-x="525" d="M20 48l43 130l130 -43h128l20 20v15l-8 12l-260 63l-45 74v117l107 107h225l145 -48l-43 -130l-130 43h-129l-20 -20v-14l8 -11l260 -63l45 -74v-119l-107 -107h-224z" />
<glyph unicode="&#x456;" horiz-adv-x="277" d="M30 500l146 48l48 -146v-402h-155v381zM67 627v75l42 42h71l47 -42v-75l-42 -42h-76z" />
<glyph unicode="&#x457;" horiz-adv-x="277" d="M-39 627v75l42 42h71l47 -42v-75l-42 -42h-76zM30 500l146 48l48 -146v-402h-155v381zM173 627v75l42 42h71l47 -42v-75l-42 -42h-76z" />
<glyph unicode="&#x458;" horiz-adv-x="305" d="M-60 -51l133 47l24 33v352l-39 119l146 48l48 -146v-419l-78 -108l-185 -65zM95 627v75l42 42h71l47 -42v-75l-42 -42h-76z" />
<glyph unicode="&#x459;" horiz-adv-x="850" d="M0 118l75 27l33 34l46 364h383v-180h186l107 -107v-149l-107 -107h-341v398h-89l-36 -291l-77 -80l-131 -47zM537 125h119l19 19v75l-19 19h-119v-113z" />
<glyph unicode="&#x45a;" horiz-adv-x="839" d="M30 515l146 48l48 -146v-59h139v185h155v-195h194l107 -107v-134l-107 -107h-349v213h-139v-213h-155v396zM518 125h127l19 19v60l-19 19h-127v-98z" />
<glyph unicode="&#x45b;" horiz-adv-x="612" d="M0 460v120h83l-32 98l146 48l48 -146h135v-120h-135v-74l50 37h169l108 -107v-316h-155v259l-19 19h-103l-50 -37v-241h-155v460h-90z" />
<glyph unicode="&#x45c;" horiz-adv-x="538" d="M50 0v543h155v-211h11l128 176l115 60l69 -133l-78 -41l-91 -125l95 -123l74 -38l-68 -133l-105 54l-138 178h-12v-207h-155zM215 562l100 170h145l-120 -170h-125z" />
<glyph unicode="&#x45e;" horiz-adv-x="549" d="M0 504l140 59l132 -314l13 -69h4l13 69l105 314l142 -47l-201 -604l-80 -80h-185v145h123l17 17l7 22h-25zM82 676v105h135v-45l15 -15h91l15 15v45h135v-105l-76 -75h-239z" />
<glyph unicode="&#x45f;" horiz-adv-x="582" d="M50 0v543h155v-408h172v408h155v-543h-164v-150h-155v150h-163z" />
<glyph unicode="&#x490;" horiz-adv-x="552" d="M60 0v710h327v90h155v-235h-327v-565h-155z" />
<glyph unicode="&#x491;" horiz-adv-x="470" d="M50 0v543h250v80h155v-226h-249v-397h-156z" />
<glyph unicode="&#x2013;" horiz-adv-x="586" d="M20 242v126h546v-126h-546z" />
<glyph unicode="&#x2014;" horiz-adv-x="772" d="M20 242v126h732v-126h-732z" />
<glyph unicode="&#x2018;" horiz-adv-x="220" d="M0 420l105 290h105l-65 -290h-145z" />
<glyph unicode="&#x2019;" horiz-adv-x="220" d="M10 420l65 290h145l-105 -290h-105z" />
<glyph unicode="&#x201a;" horiz-adv-x="220" d="M10 -180l65 290h145l-105 -290h-105z" />
<glyph unicode="&#x201c;" horiz-adv-x="420" d="M0 420l105 290h105l-65 -290h-145zM200 420l105 290h105l-65 -290h-145z" />
<glyph unicode="&#x201d;" horiz-adv-x="420" d="M10 420l65 290h145l-105 -290h-105zM210 420l65 290h145l-105 -290h-105z" />
<glyph unicode="&#x201e;" horiz-adv-x="420" d="M10 -180l65 290h145l-105 -290h-105zM210 -180l65 290h145l-105 -290h-105z" />
<glyph unicode="&#x2026;" horiz-adv-x="690" d="M30 27v85l42 42h81l47 -42v-85l-42 -42h-86zM260 27v85l42 42h81l47 -42v-85l-42 -42h-86zM490 27v85l42 42h81l47 -42v-85l-42 -42h-86z" />
<glyph unicode="&#x2039;" horiz-adv-x="389" d="M20 223v80l261 233l98 -110l-183 -163l183 -163l-98 -110z" />
<glyph unicode="&#x203a;" horiz-adv-x="389" d="M10 100l183 163l-183 163l98 110l261 -233v-80l-261 -233z" />
<glyph unicode="&#x20ac;" d="M0 248v85h50v44h-40v85h40v120l128 128h289l128 -128v-132h-155v75l-40 40h-155l-40 -40v-63h200v-85h-200v-44h190v-85h-190v-63l40 -40h162l96 96l106 -106l-135 -135h-296l-128 128v120h-50z" />
<glyph unicode="&#x2122;" horiz-adv-x="865" d="M0 575v135h345v-135h-95v-215h-155v215h-95zM385 360v350h145l61 -127l12 -38h4l12 38l61 127h145v-350h-135v110l11 57h-4l-55 -114h-74l-55 114h-4l11 -57v-110h-135z" />
</font>
</defs>
</svg>
