<?xml version="1.0" standalone="no"?>
<!DOCTYPE svg PUBLIC "-//W3C//DTD SVG 1.1//EN" "http://www.w3.org/Graphics/SVG/1.1/DTD/svg11.dtd" >
<svg xmlns="http://www.w3.org/2000/svg">
<metadata></metadata>
<defs>
<font id="BenderItalic" horiz-adv-x="561" >
<font-face units-per-em="1000" ascent="800" descent="-200" />
<missing-glyph horiz-adv-x="300" />
<glyph horiz-adv-x="0" />
<glyph horiz-adv-x="1000" />
<glyph unicode=" "  horiz-adv-x="300" />
<glyph unicode="&#x09;" horiz-adv-x="300" />
<glyph unicode="&#xa0;" horiz-adv-x="300" />
<glyph unicode="!" horiz-adv-x="250" d="M72 14l7 42l29 24h42l19 -24l-7 -42l-28 -24h-42zM103 125l100 575h70l-102 -575h-68z" />
<glyph unicode="&#x22;" horiz-adv-x="275" d="M109 447l34 253h70l-56 -253h-48zM254 447l34 253h70l-56 -253h-48z" />
<glyph unicode="#" horiz-adv-x="734" d="M23 192l12 65h160l108 186h-133l11 65h157l111 192h67l-110 -192h203l111 192h67l-110 -192h136l-11 -65h-161l-107 -186h133l-12 -65h-158l-109 -192h-67l109 192h-204l-109 -192h-67l109 192h-136zM264 257h202l108 186h-204z" />
<glyph unicode="$" horiz-adv-x="544" d="M37 34l32 61l82 -30h225l75 64l17 95l-9 26l-328 174l-17 56l21 118l120 102h98l12 70h65l-12 -70h99l92 -33l-30 -60l-86 28h-223l-75 -64l-13 -72l8 -25l326 -173l20 -58l-25 -141l-119 -102h-98l-13 -70h-65l13 70h-96z" />
<glyph unicode="%" horiz-adv-x="701" d="M55 28l650 685l43 -38l-649 -686zM106 492l22 126l97 82h126l67 -82l-22 -126l-96 -82h-126zM176 519l36 -44h72l52 44l13 72l-37 44h-72l-51 -44zM385 82l22 126l97 82h126l67 -82l-22 -126l-96 -82h-126zM455 109l36 -44h72l52 44l12 72l-36 44h-72l-52 -44z" />
<glyph unicode="&#x26;" horiz-adv-x="605" d="M37 102l25 138l181 152l-69 96l19 110l121 102h204l85 -103l-17 -95h-65l12 68l-54 65h-150l-76 -65l-10 -57l233 -323l107 90l38 -46l-110 -93l79 -110l-56 -43l-77 107l-111 -95h-223zM107 130l54 -65h170l92 78l-146 201l-155 -131z" />
<glyph unicode="'" horiz-adv-x="130" d="M109 447l34 253h70l-56 -253h-48z" />
<glyph unicode="(" horiz-adv-x="250" d="M26 -22l102 580l91 114l124 42l12 -60l-105 -36l-60 -74l-97 -552l34 -74l92 -36l-33 -60l-109 42z" />
<glyph unicode=")" horiz-adv-x="250" d="M-30 -118l103 36l60 74l97 552l-34 74l-91 36l32 60l110 -42l51 -114l-102 -580l-91 -114l-124 -42z" />
<glyph unicode="*" horiz-adv-x="377" d="M104 479l103 55l-84 55l44 57l83 -54l19 108h65l-19 -108l101 54l24 -57l-102 -55l83 -55l-44 -57l-83 54l-19 -108h-65l19 108l-101 -54z" />
<glyph unicode="+" horiz-adv-x="470" d="M65 312l11 65h182l32 183h65l-32 -183h183l-11 -65h-183l-33 -182h-65l33 182h-182z" />
<glyph unicode="," horiz-adv-x="150" d="M-41 -180l96 240h75l-127 -240h-44z" />
<glyph unicode="-" horiz-adv-x="450" d="M65 312l11 65h410l-11 -65h-410z" />
<glyph unicode="." horiz-adv-x="150" d="M22 14l7 42l29 24h42l19 -24l-7 -42l-28 -24h-42z" />
<glyph unicode="/" horiz-adv-x="506" d="M-7 20l575 692l47 -33l-575 -693z" />
<glyph unicode="0" horiz-adv-x="604" d="M67 102l88 496l121 102h279l84 -102l-88 -496l-120 -102h-279zM137 125l392 497l-12 13h-226l-76 -64zM177 78l12 -13h226l76 64l79 446z" />
<glyph unicode="1" horiz-adv-x="360" d="M33 0l11 65h116l96 544l-110 -93l-37 46l163 139h65l-112 -636h116l-11 -65h-297z" />
<glyph unicode="2" horiz-adv-x="546" d="M11 0l25 144l387 227l86 74l22 126l-52 64h-250l-92 -28l-10 61l109 32h281l84 -103l-32 -181l-110 -93l-364 -214l-8 -44h420l-11 -65h-485z" />
<glyph unicode="3" horiz-adv-x="535" d="M5 34l32 61l82 -30h248l75 63l27 154l-52 63h-216l12 69l289 221h-380l12 65h474l-12 -66l-293 -224h152l84 -102l-37 -206l-120 -102h-281z" />
<glyph unicode="4" horiz-adv-x="556" d="M30 171l15 88l476 443h65l-82 -466h73l-11 -65h-73l-30 -171h-65l30 171h-398zM110 236h329l65 366z" />
<glyph unicode="5" horiz-adv-x="559" d="M45 34l32 61l82 -30h230l77 65l28 158l-53 65h-330l61 347h460l-12 -65h-395l-38 -217h293l84 -102l-38 -214l-120 -102h-265z" />
<glyph unicode="6" horiz-adv-x="585" d="M68 103l87 494l120 103h282l92 -33l-33 -61l-84 29h-243l-74 -64l-28 -157l35 11h284l85 -105l-39 -218l-120 -102h-279zM137 130l54 -65h225l76 65l29 163l-53 67h-257l-35 -11z" />
<glyph unicode="7" horiz-adv-x="505" d="M111 635l12 65h475l-22 -125l-307 -400l-30 -175h-65l33 191l307 401l7 43h-410z" />
<glyph unicode="8" horiz-adv-x="603" d="M67 102l35 193l82 70l-54 64l30 169l120 102h273l80 -102l-30 -169l-76 -64l58 -70l-35 -193l-120 -102h-277zM137 129l54 -64h222l77 65l25 138l-53 64h-224l-76 -65zM200 457l51 -60h221l71 60l20 112l-52 66h-217l-74 -63z" />
<glyph unicode="9" horiz-adv-x="585" d="M38 33l33 61l84 -29h243l74 64l28 157l-35 -11h-284l-84 105l38 218l121 102h279l85 -103l-87 -494l-120 -103h-282zM166 407l53 -67h257l35 11l39 219l-54 65h-225l-76 -65z" />
<glyph unicode=":" horiz-adv-x="150" d="M22 14l7 42l29 24h42l19 -24l-7 -42l-28 -24h-42zM90 402l8 42l28 24h42l20 -24l-8 -42l-28 -24h-42z" />
<glyph unicode=";" horiz-adv-x="156" d="M-41 -180l96 240h75l-127 -240h-44zM96 402l8 42l28 24h42l20 -24l-8 -42l-28 -24h-42z" />
<glyph unicode="&#x3c;" horiz-adv-x="349" d="M52 240l8 46l318 237l34 -49l-282 -211l208 -211l-52 -49z" />
<glyph unicode="=" horiz-adv-x="450" d="M49 222l11 65h410l-11 -65h-410zM81 403l11 65h410l-11 -65h-410z" />
<glyph unicode="&#x3e;" horiz-adv-x="349" d="M9 52l282 211l-208 211l52 49l234 -237l-8 -46l-318 -237z" />
<glyph unicode="?" horiz-adv-x="544" d="M92 583l139 117h284l84 -102l-33 -184l-246 -180l-19 -109h-65l25 144l247 180l21 122l-53 64h-230l-115 -98zM203 12l7 42l28 24h42l20 -24l-7 -42l-29 -24h-42z" />
<glyph unicode="@" horiz-adv-x="879" d="M61 8l100 570l158 122h467l114 -122l-75 -429l-98 -82h-147l-7 50l-63 -54h-176l-69 82l19 110l98 82h216l13 72l-38 44h-134l-92 -30l-10 61l107 34h168l68 -82l-46 -264l6 -40h72l53 44l65 374l-80 85h-419l-110 -85l-90 -514l80 -85h446l-12 -65h-470zM335 172l37 -44 h121l80 66l13 78h-189l-52 -44z" />
<glyph unicode="A" horiz-adv-x="578" d="M11 10l345 690h92l101 -690l-66 -20l-33 222h-268l-111 -222zM214 277h226l-51 350z" />
<glyph unicode="B" horiz-adv-x="615" d="M70 0l123 700h381l68 -83l-35 -198l-57 -49l57 -71l-34 -196l-121 -103h-382zM146 65h292l74 63l26 145l-52 64h-292zM205 402h290l52 44l26 145l-37 44h-290z" />
<glyph unicode="C" horiz-adv-x="579" d="M68 103l87 494l121 103h279l85 -103l-20 -112h-65l15 85l-54 65h-225l-76 -65l-78 -440l54 -65h236l89 76l39 -46l-111 -95h-291z" />
<glyph unicode="D" horiz-adv-x="626" d="M70 0l123 700h383l85 -104l-87 -492l-121 -104h-383zM146 65h291l77 66l77 438l-54 66h-291z" />
<glyph unicode="E" horiz-adv-x="533" d="M70 0l123 700h433l-12 -65h-368l-40 -232h326l-12 -65h-326l-48 -273h368l-11 -65h-433z" />
<glyph unicode="F" horiz-adv-x="523" d="M70 0l123 700h433l-12 -65h-368l-42 -240h326l-11 -65h-326l-58 -330h-65z" />
<glyph unicode="G" horiz-adv-x="605" d="M67 102l88 496l120 102h281l84 -102l-20 -113h-65l15 86l-52 64h-229l-74 -64l-78 -442l52 -64h229l74 64l30 167h-168l11 65h233l-46 -259l-119 -102h-281z" />
<glyph unicode="H" horiz-adv-x="645" d="M70 0l123 700h65l-54 -304h355l54 304h65l-123 -700h-65l58 331h-355l-58 -331h-65z" />
<glyph unicode="I" horiz-adv-x="357" d="M20 0l11 65h116l100 570h-116l12 65h297l-12 -65h-116l-100 -570h116l-11 -65h-297z" />
<glyph unicode="J" horiz-adv-x="527" d="M10 117l55 46l82 -98h181l76 65l89 505h-168l12 65h233l-105 -597l-121 -103h-237z" />
<glyph unicode="K" horiz-adv-x="563" d="M70 0l123 700h65l-66 -374l433 384l39 -45l-288 -256l181 -384l-60 -35l-176 371l-146 -129l-40 -232h-65z" />
<glyph unicode="L" horiz-adv-x="513" d="M70 0l123 700h65l-112 -635h368l-11 -65h-433z" />
<glyph unicode="M" horiz-adv-x="832" d="M70 0l123 700h72l184 -451l344 451h72l-123 -700h-65l102 581l-316 -415h-56l-170 415l-102 -581h-65z" />
<glyph unicode="N" horiz-adv-x="646" d="M70 0l123 700h73l244 -587l104 587h65l-123 -700h-73l-245 587l-103 -587h-65z" />
<glyph unicode="O" horiz-adv-x="635" d="M68 103l87 494l131 103h289l95 -103l-87 -494l-131 -103h-289zM137 130l61 -65h241l83 65l78 440l-61 65h-241l-83 -65z" />
<glyph unicode="P" horiz-adv-x="605" d="M70 0l123 700h382l85 -102l-40 -229l-121 -102h-317l-47 -267h-65zM193 332h289l78 65l30 173l-55 65h-289z" />
<glyph unicode="Q" horiz-adv-x="635" d="M68 103l87 494l131 103h289l95 -103l-87 -494l-131 -103h-112l-25 -138h-65l25 138h-112zM137 130l61 -65h88l11 60h65l-11 -60h88l83 65l78 440l-61 65h-241l-83 -65z" />
<glyph unicode="R" horiz-adv-x="605" d="M70 0l123 700h382l85 -102l-39 -222l-121 -102h-141l199 -242l-54 -47l-237 289h-84l-48 -274h-65zM194 339h289l78 65l29 166l-55 65h-289z" />
<glyph unicode="S" horiz-adv-x="544" d="M37 34l32 61l82 -30h225l75 64l17 95l-9 26l-328 174l-17 56l21 118l120 102h262l92 -33l-30 -60l-86 28h-223l-75 -64l-13 -72l8 -25l326 -173l20 -58l-25 -141l-119 -102h-259z" />
<glyph unicode="T" horiz-adv-x="505" d="M101 635l12 65h505l-12 -65h-220l-111 -635h-65l111 635h-220z" />
<glyph unicode="U" horiz-adv-x="625" d="M77 102l106 598h65l-101 -570l55 -65h223l77 65l101 570h65l-106 -598l-120 -102h-279z" />
<glyph unicode="V" horiz-adv-x="586" d="M131 689l67 21l98 -631l322 631l59 -21l-350 -689h-88z" />
<glyph unicode="W" horiz-adv-x="908" d="M132 692l67 18l65 -597l263 566h72l63 -566l277 597l61 -18l-320 -692h-74l-63 564l-261 -564h-74z" />
<glyph unicode="X" horiz-adv-x="544" d="M16 26l268 324l-156 324l62 36l144 -300l250 300l48 -36l-270 -324l154 -324l-61 -36l-142 300l-248 -300z" />
<glyph unicode="Y" horiz-adv-x="560" d="M119 676l64 34l147 -368l277 368l52 -34l-311 -413l-46 -263h-65l46 264z" />
<glyph unicode="Z" horiz-adv-x="515" d="M10 0l10 62l490 573h-384l12 65h470l-11 -64l-490 -571h384l-11 -65h-470z" />
<glyph unicode="[" horiz-adv-x="224" d="M0 -168l153 868h184l-12 -65h-119l-130 -738h119l-11 -65h-184z" />
<glyph unicode="\" horiz-adv-x="506" d="M109 679l59 33l331 -692l-59 -34z" />
<glyph unicode="]" horiz-adv-x="224" d="M-39 -168l11 65h118l130 738h-119l12 65h184l-153 -868h-183z" />
<glyph unicode="^" horiz-adv-x="470" d="M62 412l263 288h46l161 -288l-59 -38l-139 247l-227 -247z" />
<glyph unicode="_" horiz-adv-x="446" d="M-21 -65l11 65h446l-12 -65h-445z" />
<glyph unicode="`" horiz-adv-x="200" d="M103 700h79l102 -220h-56z" />
<glyph unicode="a" horiz-adv-x="551" d="M54 82l65 369l97 82h257l69 -82l-58 -331l8 -113l-65 -15l-5 64l-65 -56h-234zM124 109l37 -44h181l79 67l51 292l-37 44h-203l-53 -44z" />
<glyph unicode="b" d="M83 82l91 517l-13 88l64 20l15 -101l-18 -105l37 32h243l68 -82l-65 -369l-96 -82h-258zM153 108l35 -43h206l51 43l55 317l-35 43h-189l-71 -60z" />
<glyph unicode="c" horiz-adv-x="514" d="M64 83l65 367l96 83h258l68 -83l-20 -110h-65l16 86l-36 42h-206l-50 -42l-57 -319l36 -42h208l93 28l9 -61l-107 -32h-240z" />
<glyph unicode="d" horiz-adv-x="560" d="M64 81l65 371l95 81h244l27 -32l34 199h66l-102 -580l8 -113l-65 -15l-5 64l-65 -56h-235zM134 108l35 -43h182l79 67l48 276l-49 60h-189l-51 -43z" />
<glyph unicode="e" horiz-adv-x="524" d="M64 82l65 369l96 82h258l68 -82l-26 -147l-96 -81h-275l-20 -114l36 -44h207l93 28l9 -61l-107 -32h-240zM165 288h248l52 44l16 92l-36 44h-204l-52 -44z" />
<glyph unicode="f" horiz-adv-x="373" d="M38 -154l45 88l82 468h-85l12 65h85l26 151l98 82h133l96 -34l-33 -61l-82 30h-101l-50 -43l-22 -125h169l-12 -65h-169l-83 -475l-51 -101z" />
<glyph unicode="g" horiz-adv-x="542" d="M26 -136l30 61l83 -28h206l51 42l16 93l-37 -32h-243l-68 82l65 369l96 82h258l68 -82l-94 -536l-97 -83h-238zM134 108l35 -43h189l71 60l52 300l-35 43h-206l-51 -43z" />
<glyph unicode="h" horiz-adv-x="560" d="M69 0l105 599l-13 88l64 20l15 -101l-18 -105l37 32h242l68 -82l-79 -451h-65l74 425l-35 43h-188l-71 -60l-71 -408h-65z" />
<glyph unicode="i" horiz-adv-x="216" d="M69 0l76 433l-14 88l65 20l15 -101l-77 -440h-65zM166 629l8 42l28 24h42l20 -24l-8 -42l-28 -24h-42z" />
<glyph unicode="j" horiz-adv-x="214" d="M-100 -117l122 40l39 45l82 465l-14 88l65 20l15 -101l-86 -486l-65 -81l-148 -51zM164 629l8 42l28 24h42l20 -24l-8 -42l-28 -24h-42z" />
<glyph unicode="k" horiz-adv-x="493" d="M69 0l105 599l-13 88l64 20l15 -101l-58 -329l348 266l35 -48l-241 -184l164 -282l-59 -39l-161 278l-101 -76l-33 -192h-65z" />
<glyph unicode="l" horiz-adv-x="204" d="M69 0l105 599l-13 88l64 20l15 -101l-106 -606h-65z" />
<glyph unicode="m" horiz-adv-x="831" d="M68 0l72 413l-8 113l65 15l5 -64l65 56h192l41 -49l57 49h215l68 -83l-79 -450h-65l74 423l-37 45h-160l-52 -44l-74 -424h-65l74 423l-37 45h-137l-79 -67l-70 -401h-65z" />
<glyph unicode="n" d="M68 0l72 413l-8 113l65 15l5 -64l65 56h235l68 -82l-79 -451h-65l74 423l-37 45h-181l-79 -67l-70 -401h-65z" />
<glyph unicode="o" horiz-adv-x="547" d="M64 83l65 367l96 83h263l68 -83l-65 -367l-96 -83h-263zM134 110l36 -45h209l52 45l55 313l-36 45h-209l-52 -45z" />
<glyph unicode="p" horiz-adv-x="560" d="M38 -168l102 581l-8 113l65 15l5 -64l65 56h235l67 -81l-65 -371l-95 -81h-244l-27 32l-35 -200h-65zM155 125l49 -60h189l51 43l55 317l-35 43h-182l-79 -67z" />
<glyph unicode="q" horiz-adv-x="551" d="M64 82l65 369l96 82h258l68 -82l-91 -517l13 -88l-64 -20l-15 101l18 105l-37 -32h-243zM134 108l35 -43h189l71 60l52 300l-35 43h-206l-51 -43z" />
<glyph unicode="r" horiz-adv-x="459" d="M68 0l72 413l-8 113l65 15l5 -64l65 56h178l81 -95l-54 -47l-65 77h-125l-79 -67l-70 -401h-65z" />
<glyph unicode="s" horiz-adv-x="477" d="M25 32l31 62l84 -29h196l53 45l10 60l-7 22l-287 108l-20 60l16 91l96 82h232l95 -34l-31 -61l-82 30h-197l-53 -45l-8 -47l7 -23l287 -108l20 -59l-18 -104l-96 -82h-232z" />
<glyph unicode="t" horiz-adv-x="428" d="M88 445l11 65h95l29 160h65l-29 -160h170l-11 -65h-170l-59 -336l36 -44h94l95 28l9 -61l-107 -32h-129l-68 82l64 363h-95z" />
<glyph unicode="u" d="M64 82l79 451h65l-74 -423l37 -45h181l79 67l70 401h65l-72 -413l8 -113l-65 -15l-5 64l-65 -56h-235z" />
<glyph unicode="v" horiz-adv-x="500" d="M91 519l64 24l100 -453l260 453l56 -24l-298 -519h-66z" />
<glyph unicode="w" horiz-adv-x="728" d="M92 524l66 19l52 -432l199 400h70l57 -400l204 432l60 -19l-248 -524h-68l-59 406l-201 -406h-68z" />
<glyph unicode="x" horiz-adv-x="452" d="M6 29l216 237l-134 238l60 39l124 -220l202 220l46 -39l-218 -238l134 -237l-60 -39l-124 219l-200 -219z" />
<glyph unicode="y" horiz-adv-x="493" d="M46 -168l11 65h103l32 27l39 76h-18l-122 518l66 25l110 -471l240 471l58 -20l-322 -632l-69 -59h-128z" />
<glyph unicode="z" horiz-adv-x="452" d="M10 0l11 64l397 404h-324l11 65h410l-11 -65l-397 -403h324l-11 -65h-410z" />
<glyph unicode="{" horiz-adv-x="319" d="M53 246l8 44l101 77l37 207l88 109l132 31l4 -62l-107 -25l-55 -66l-39 -225l-90 -68l66 -68l-40 -225l31 -66l99 -25l-26 -62l-121 31l-50 109l36 207z" />
<glyph unicode="|" horiz-adv-x="226" d="M40 -168l153 868h66l-153 -868h-66z" />
<glyph unicode="}" horiz-adv-x="319" d="M-30 -116l106 25l55 66l40 225l90 68l-66 68l39 225l-31 66l-99 25l26 62l122 -31l50 -109l-37 -207l75 -77l-8 -44l-102 -77l-36 -207l-88 -109l-132 -31z" />
<glyph unicode="~" horiz-adv-x="624" d="M76 377l55 46l82 -98h81l121 103h137l96 -117l-55 -46l-81 98h-81l-122 -103h-137z" />
<glyph unicode="&#xa2;" horiz-adv-x="514" d="M64 83l65 367l96 83h103l13 70h65l-13 -70h90l68 -83l-20 -110h-65l16 86l-36 42h-206l-50 -42l-57 -319l36 -42h208l93 28l9 -61l-107 -32h-73l-13 -70h-65l13 70h-102z" />
<glyph unicode="&#xa5;" horiz-adv-x="560" d="M101 150l11 65h162l9 48h-162l11 65h125l-138 348l64 34l147 -368l277 368l52 -34l-263 -348h125l-11 -65h-162l-9 -48h162l-11 -65h-162l-26 -150h-65l26 150h-162z" />
<glyph unicode="&#xa9;" horiz-adv-x="859" d="M71 123l80 454l158 123h467l114 -123l-80 -454l-157 -123h-467zM141 153l83 -88h413l113 88l70 394l-83 88h-413l-113 -88zM283 228l43 244l96 83h184l68 -83l-13 -75h-65l8 49l-35 44h-132l-51 -44l-34 -192l36 -44h133l92 28l10 -61l-108 -32h-165z" />
<glyph unicode="&#xab;" horiz-adv-x="597" d="M56 263l349 260l34 -49l-282 -211l208 -211l-52 -49zM277 263l349 260l34 -49l-282 -211l208 -211l-52 -49z" />
<glyph unicode="&#xae;" horiz-adv-x="859" d="M71 123l80 454l158 123h467l114 -123l-80 -454l-157 -123h-467zM141 153l83 -88h413l113 88l70 394l-83 88h-413l-113 -88zM282 145l72 410h267l69 -82l-17 -95l-97 -82h-42l101 -123l-54 -47l-140 170h-67l-27 -151h-65zM385 361h178q9 8 24.5 21t24.5 20l9 47l-35 41 h-178z" />
<glyph unicode="&#xbb;" horiz-adv-x="597" d="M9 52l282 211l-208 211l52 49l257 -260l-349 -260zM230 52l282 211l-208 211l52 49l257 -260l-349 -260z" />
<glyph unicode="&#x401;" horiz-adv-x="533" d="M70 0l123 700h433l-12 -65h-368l-40 -232h326l-12 -65h-326l-48 -273h368l-11 -65h-433zM299 812l7 42l28 24h42l20 -24l-7 -42l-29 -24h-42zM479 812l7 42l28 24h42l20 -24l-7 -42l-29 -24h-42z" />
<glyph unicode="&#x402;" horiz-adv-x="657" d="M81 635l12 65h355l-12 -65h-145l-37 -211l30 8h307l67 -83l-49 -277l-65 -81l-149 -51l-10 61l123 40l39 45l42 239l-36 42h-275l-36 -11l-62 -356h-65l111 635h-145z" />
<glyph unicode="&#x403;" horiz-adv-x="512" d="M70 0l123 700h432l-12 -65h-367l-111 -635h-65zM366 745l130 170h75l-140 -170h-65z" />
<glyph unicode="&#x404;" horiz-adv-x="579" d="M68 103l87 494l121 103h279l85 -103l-20 -112h-65l15 85l-54 65h-225l-76 -65l-33 -186h286l-11 -65h-286l-34 -189l54 -65h236l89 76l39 -46l-111 -95h-291z" />
<glyph unicode="&#x405;" horiz-adv-x="544" d="M37 34l32 61l82 -30h225l75 64l17 95l-9 26l-328 174l-17 56l21 118l120 102h262l92 -33l-30 -60l-86 28h-223l-75 -64l-13 -72l8 -25l326 -173l20 -58l-25 -141l-119 -102h-259z" />
<glyph unicode="&#x406;" horiz-adv-x="357" d="M20 0l11 65h116l100 570h-116l12 65h297l-12 -65h-116l-100 -570h116l-11 -65h-297z" />
<glyph unicode="&#x407;" horiz-adv-x="357" d="M20 0l11 65h116l100 570h-116l12 65h297l-12 -65h-116l-100 -570h116l-11 -65h-297zM174 799l8 42l28 24h42l20 -24l-8 -42l-28 -24h-42zM354 799l8 42l28 24h42l20 -24l-8 -42l-28 -24h-42z" />
<glyph unicode="&#x408;" horiz-adv-x="527" d="M10 117l55 46l82 -98h181l76 65l89 505h-168l12 65h233l-105 -597l-121 -103h-237z" />
<glyph unicode="&#x409;" horiz-adv-x="967" d="M-1 52l82 25l45 41l167 582h368l-50 -283h287l84 -104l-37 -209l-120 -104h-352l111 635h-245l-156 -547l-75 -68l-100 -30zM549 65h259l77 67l27 153l-53 67h-259z" />
<glyph unicode="&#x40a;" horiz-adv-x="954" d="M70 0l123 700h65l-51 -291h325l51 291h65l-51 -291h287l83 -104l-35 -201l-120 -104h-352l60 344h-325l-60 -344h-65zM536 65h259l77 67l25 145l-53 67h-259z" />
<glyph unicode="&#x40b;" horiz-adv-x="657" d="M81 635l12 65h355l-12 -65h-145l-37 -211l30 8h307l67 -83l-61 -349h-65l57 325l-36 42h-275l-36 -11l-62 -356h-65l111 635h-145z" />
<glyph unicode="&#x40c;" horiz-adv-x="570" d="M70 0l123 700h66l-56 -318h113l227 294l112 34l9 -63l-86 -26l-209 -271l114 -271l76 -26l-31 -63l-100 34l-124 293h-113l-55 -317h-66zM350 710l130 170h75l-140 -170h-65z" />
<glyph unicode="&#x40e;" horiz-adv-x="558" d="M90 0l11 65h113l41 34l30 50l-175 534l62 29l159 -485l284 485l54 -24l-369 -628l-72 -60h-138zM239 812l15 89h65l-10 -61l19 -23h177l27 23l10 61h65l-15 -89l-72 -60h-231z" />
<glyph unicode="&#x40f;" horiz-adv-x="644" d="M70 0l123 698h65l-112 -633h354l112 633h65l-123 -698h-209l-30 -168h-65l30 168h-210z" />
<glyph unicode="&#x410;" horiz-adv-x="578" d="M11 10l345 690h92l101 -690l-66 -20l-33 222h-268l-111 -222zM214 277h226l-51 350z" />
<glyph unicode="&#x411;" horiz-adv-x="605" d="M70 0l123 700h443l-12 -65h-378l-38 -218h318l84 -104l-37 -209l-120 -104h-383zM146 65h290l77 67l27 153l-53 67h-290z" />
<glyph unicode="&#x412;" horiz-adv-x="615" d="M70 0l123 700h381l68 -83l-35 -198l-57 -49l57 -71l-34 -196l-121 -103h-382zM146 65h292l74 63l26 145l-52 64h-292zM205 402h290l52 44l26 145l-37 44h-290z" />
<glyph unicode="&#x413;" horiz-adv-x="512" d="M70 0l123 700h432l-12 -65h-367l-111 -635h-65z" />
<glyph unicode="&#x414;" horiz-adv-x="656" d="M-39 -168l40 233h63l60 82l159 553h393l-112 -635h73l-41 -233h-65l30 168h-506l-30 -168h-64zM138 65h361l100 570h-270q-19 -67 -67.5 -234.5t-77.5 -273.5z" />
<glyph unicode="&#x415;" horiz-adv-x="533" d="M70 0l123 700h433l-12 -65h-368l-40 -232h326l-12 -65h-326l-48 -273h368l-11 -65h-433z" />
<glyph unicode="&#x416;" horiz-adv-x="829" d="M9 53l84 26l210 271l-113 271l-76 26l31 63l100 -34l123 -294h71l56 318h65l-56 -318h71l227 294l112 34l9 -63l-86 -26l-209 -271l114 -271l76 -26l-31 -63l-100 34l-124 293h-71l-55 -317h-65l55 317h-71l-226 -293l-112 -34z" />
<glyph unicode="&#x417;" horiz-adv-x="534" d="M-5 33l33 61l84 -29h243l76 65l23 129l-53 67h-201l11 65h202l68 59l22 125l-49 60h-234l-92 -30l-11 61l108 34h269l79 -96l-32 -183l-74 -62l57 -72l-33 -185l-119 -102h-284z" />
<glyph unicode="&#x418;" horiz-adv-x="646" d="M70 0l123 700h65l-104 -587l451 587h74l-123 -700h-65l103 587l-450 -587h-74z" />
<glyph unicode="&#x419;" horiz-adv-x="646" d="M70 0l123 700h65l-104 -587l451 587h74l-123 -700h-65l103 587l-450 -587h-74zM282 832l16 89h65l-11 -61l19 -23h177l27 23l11 61h65l-16 -89l-71 -60h-231z" />
<glyph unicode="&#x41a;" horiz-adv-x="570" d="M70 0l123 700h66l-56 -318h113l227 294l112 34l9 -63l-86 -26l-209 -271l114 -271l76 -26l-31 -63l-100 34l-124 293h-113l-55 -317h-66z" />
<glyph unicode="&#x41b;" horiz-adv-x="658" d="M-1 52l82 25l45 41l167 582h398l-123 -700h-65l111 635h-275l-156 -547l-75 -68l-100 -30z" />
<glyph unicode="&#x41c;" horiz-adv-x="832" d="M70 0l123 700h72l184 -451l344 451h72l-123 -700h-65l102 581l-316 -415h-56l-170 415l-102 -581h-65z" />
<glyph unicode="&#x41d;" horiz-adv-x="645" d="M70 0l123 700h65l-54 -304h355l54 304h65l-123 -700h-65l58 331h-355l-58 -331h-65z" />
<glyph unicode="&#x41e;" horiz-adv-x="635" d="M68 103l87 494l131 103h289l95 -103l-87 -494l-131 -103h-289zM137 130l61 -65h241l83 65l78 440l-61 65h-241l-83 -65z" />
<glyph unicode="&#x41f;" horiz-adv-x="645" d="M70 0l123 700h485l-123 -700h-65l111 635h-355l-111 -635h-65z" />
<glyph unicode="&#x420;" horiz-adv-x="605" d="M70 0l123 700h382l85 -102l-40 -229l-121 -102h-317l-47 -267h-65zM193 332h289l78 65l30 173l-55 65h-289z" />
<glyph unicode="&#x421;" horiz-adv-x="579" d="M68 103l87 494l121 103h279l85 -103l-20 -112h-65l15 85l-54 65h-225l-76 -65l-78 -440l54 -65h236l89 76l39 -46l-111 -95h-291z" />
<glyph unicode="&#x422;" horiz-adv-x="505" d="M101 635l12 65h505l-12 -65h-220l-111 -635h-65l111 635h-220z" />
<glyph unicode="&#x423;" horiz-adv-x="558" d="M90 0l11 65h113l41 34l30 50l-175 534l62 29l159 -485l284 485l54 -24l-369 -628l-72 -60h-138z" />
<glyph unicode="&#x424;" horiz-adv-x="805" d="M74 193l62 354l121 103h217l20 115h65l-20 -115h217l85 -103l-62 -354l-122 -103h-217l-20 -115h-65l20 115h-217zM143 220l54 -65h190l76 430h-190l-77 -65zM452 155h190l76 65l53 300l-53 65h-190z" />
<glyph unicode="&#x425;" horiz-adv-x="544" d="M16 26l268 324l-156 324l62 36l144 -300l250 300l48 -36l-270 -324l154 -324l-61 -36l-142 300l-248 -300z" />
<glyph unicode="&#x426;" horiz-adv-x="668" d="M70 0l123 698h65l-112 -633h354l112 633h65l-112 -633h84l-41 -233h-65l30 168h-503z" />
<glyph unicode="&#x427;" horiz-adv-x="622" d="M111 351l62 349h65l-57 -325l35 -42h275l36 11l63 356h65l-123 -700h-65l48 276l-29 -8h-307z" />
<glyph unicode="&#x428;" horiz-adv-x="977" d="M70 0l123 700h64l-112 -635h312l112 635h65l-112 -635h311l112 635h65l-123 -700h-817z" />
<glyph unicode="&#x429;" horiz-adv-x="1002" d="M70 0l123 700h65l-112 -635h312l112 635h65l-112 -635h311l112 635h65l-112 -635h84l-41 -233h-65l30 168h-837z" />
<glyph unicode="&#x42a;" horiz-adv-x="672" d="M101 635l12 65h223l-50 -283h317l84 -104l-37 -209l-120 -104h-382l111 635h-158zM224 65h289l77 67l27 153l-53 67h-289z" />
<glyph unicode="&#x42b;" horiz-adv-x="822" d="M70 0l123 700h65l-50 -283h317l84 -104l-37 -209l-120 -104h-382zM146 65h289l77 67l27 153l-53 67h-289zM667 0l123 700h65l-123 -700h-65z" />
<glyph unicode="&#x42c;" horiz-adv-x="594" d="M70 0l123 700h65l-50 -283h317l84 -104l-37 -209l-120 -104h-382zM146 65h289l77 67l27 153l-53 67h-289z" />
<glyph unicode="&#x42d;" horiz-adv-x="579" d="M36 95l55 46l63 -76h236l76 65l34 189h-286l11 65h286l33 186l-54 65h-225l-76 -65l-15 -85h-65l20 112l121 103h279l85 -103l-87 -494l-121 -103h-291z" />
<glyph unicode="&#x42e;" horiz-adv-x="865" d="M70 0l123 700h65l-54 -304h176l36 201l131 103h258l95 -103l-87 -494l-131 -103h-258l-95 103l40 228h-176l-58 -331h-65zM398 130l61 -65h210l83 65l78 440l-61 65h-210l-83 -65z" />
<glyph unicode="&#x42f;" horiz-adv-x="609" d="M39 52l84 27l149 187h-89l-85 102l41 230l121 102h382l-123 -700h-65l46 266h-151l-192 -242l-108 -34zM168 396l55 -65h289l53 304h-289l-77 -65z" />
<glyph unicode="&#x430;" horiz-adv-x="551" d="M54 82l65 369l97 82h257l69 -82l-58 -331l8 -113l-65 -15l-5 64l-65 -56h-234zM124 109l37 -44h181l79 67l51 292l-37 44h-203l-53 -44z" />
<glyph unicode="&#x431;" horiz-adv-x="559" d="M64 82l86 486l136 116l214 36l93 79l38 -47l-108 -92l-214 -36l-99 -84l-14 -80l37 32h248l68 -82l-58 -328l-96 -82h-263zM134 109l36 -44h209l52 44l48 274l-36 44h-193l-71 -60z" />
<glyph unicode="&#x432;" horiz-adv-x="532" d="M61 65l71 403l76 65h275l54 -65l-28 -159l-38 -32l41 -49l-26 -147l-95 -81h-276zM131 92l22 -27h221l52 44l16 91l-38 45h-246zM169 310h248l32 27l18 104l-22 27h-221l-32 -27z" />
<glyph unicode="&#x433;" horiz-adv-x="473" d="M34 82l17 97l41 59l326 108l15 23l9 54l-37 45h-193l-92 -30l-11 61l107 34h228l68 -82l-17 -98l-42 -60l-325 -108l-15 -22l-9 -53l37 -45h192l94 29l9 -62l-106 -32h-228z" />
<glyph unicode="&#x434;" horiz-adv-x="547" d="M64 82l58 328l96 82h248l27 -32l16 91l-70 84h-170l-92 -30l-10 61l107 34h205l100 -121l-88 -497l-96 -82h-263zM134 109l36 -44h209l52 44l45 258l-49 60h-193l-52 -44z" />
<glyph unicode="&#x435;" horiz-adv-x="524" d="M64 82l65 369l96 82h258l68 -82l-26 -147l-96 -81h-275l-20 -114l36 -44h207l93 28l9 -61l-107 -32h-240zM165 288h248l52 44l16 92l-36 44h-204l-52 -44z" />
<glyph unicode="&#x436;" horiz-adv-x="709" d="M8 47l68 33l169 186l-104 187l-56 33l40 57l72 -42l112 -203h55l41 235h65l-41 -235h55l184 203l86 42l20 -57l-68 -33l-170 -187l105 -186l56 -33l-40 -57l-72 42l-111 201h-56l-41 -233h-65l41 233h-56l-183 -201l-86 -42z" />
<glyph unicode="&#x437;" horiz-adv-x="480" d="M5 32l31 61l85 -28h201l52 44l15 86l-37 45h-199l11 65h202l44 36l15 87l-33 40h-195q-8 -2 -43.5 -13.5t-49.5 -15.5l-10 60l107 34h229l65 -78l-25 -138l-52 -45l41 -49l-25 -141l-96 -82h-236z" />
<glyph unicode="&#x438;" d="M64 82l79 451h65l-74 -423l37 -45h181l79 67l70 401h65l-72 -413l8 -113l-65 -15l-5 64l-65 -56h-235z" />
<glyph unicode="&#x439;" d="M64 82l79 451h65l-74 -423l37 -45h181l79 67l70 401h65l-72 -413l8 -113l-65 -15l-5 64l-65 -56h-235zM208 670l15 89h65l-10 -61l19 -23h167l27 23l10 61h65l-15 -89l-72 -60h-221z" />
<glyph unicode="&#x43a;" horiz-adv-x="486" d="M50 0l93 533h65l-41 -235h94l184 203l86 42l20 -57l-68 -33l-170 -187l105 -186l56 -33l-40 -57l-72 42l-111 201h-95l-41 -233h-65z" />
<glyph unicode="&#x43b;" horiz-adv-x="553" d="M-1 53l68 20l52 45l117 415h340l-93 -533h-65l82 468h-216l-108 -384l-78 -67l-91 -27z" />
<glyph unicode="&#x43c;" horiz-adv-x="666" d="M50 0l93 533h72l143 -332l259 332h72l-93 -533h-65l74 420l-231 -294h-58l-127 294l-74 -420h-65z" />
<glyph unicode="&#x43d;" d="M69 0l76 433l-14 88l65 20l15 -101l-24 -136h292l40 229h65l-93 -533h-65l42 239h-292l-42 -239h-65z" />
<glyph unicode="&#x43e;" horiz-adv-x="547" d="M64 83l65 367l96 83h263l68 -83l-65 -367l-96 -83h-263zM134 110l36 -45h209l52 45l55 313l-36 45h-209l-52 -45z" />
<glyph unicode="&#x43f;" d="M68 0l72 413l-8 113l65 15l5 -64l65 56h235l68 -82l-79 -451h-65l74 423l-37 45h-181l-79 -67l-70 -401h-65z" />
<glyph unicode="&#x440;" horiz-adv-x="560" d="M38 -168l102 581l-8 113l65 15l5 -64l65 56h235l67 -81l-65 -371l-95 -81h-244l-27 32l-34 -200h-66zM155 125l49 -60h189l51 43l55 317l-35 43h-182l-79 -67z" />
<glyph unicode="&#x441;" horiz-adv-x="514" d="M64 83l65 367l96 83h258l68 -83l-20 -110h-65l16 86l-36 42h-206l-50 -42l-57 -319l36 -42h208l93 28l9 -61l-107 -32h-240z" />
<glyph unicode="&#x442;" horiz-adv-x="831" d="M68 0l72 413l-8 113l65 15l5 -64l65 56h192l41 -49l57 49h215l68 -83l-79 -450h-65l74 423l-37 45h-160l-52 -44l-74 -424h-65l74 423l-37 45h-137l-79 -67l-70 -401h-65z" />
<glyph unicode="&#x443;" horiz-adv-x="493" d="M46 -168l11 65h103l32 27l39 76h-18l-122 518l66 25l110 -471l240 471l58 -20l-322 -632l-69 -59h-128z" />
<glyph unicode="&#x444;" horiz-adv-x="715" d="M64 81l65 371l95 81h156l27 -10l15 85l51 101l57 -20l-45 -88l-13 -78l29 10h156l67 -81l-65 -371l-95 -81h-156l-27 9l-14 -82l-51 -101l-58 20l45 88l13 75l-29 -9h-156zM134 109l36 -44h123l35 11l67 380l-31 12h-123l-52 -44zM393 76l31 -11h123l52 44l55 315l-36 44 h-123l-35 -12z" />
<glyph unicode="&#x445;" horiz-adv-x="452" d="M6 29l216 237l-134 238l60 39l124 -220l202 220l46 -39l-218 -238l134 -237l-60 -39l-124 219l-200 -219z" />
<glyph unicode="&#x446;" horiz-adv-x="566" d="M64 82l79 451h65l-74 -423l37 -45h181l79 67l70 401h65l-76 -436l51 -63l-30 -174h-65l26 148l-40 48l-65 -56h-235z" />
<glyph unicode="&#x447;" horiz-adv-x="520" d="M88 273l45 260h65l-40 -232l36 -44h202l36 11l46 265h65l-93 -533h-65l35 200l-30 -8h-236z" />
<glyph unicode="&#x448;" horiz-adv-x="831" d="M64 83l79 450h65l-74 -423l37 -45h160l52 44l74 424h65l-74 -423l37 -45h137l79 67l70 401h65l-72 -413l8 -113l-65 -15l-5 64l-65 -56h-192l-41 49l-57 -49h-215z" />
<glyph unicode="&#x449;" horiz-adv-x="836" d="M64 83l79 450h65l-74 -423l37 -45h160l52 44l74 424h65l-74 -423l37 -45h137l79 67l70 401h65l-76 -436l51 -63l-30 -174h-65l26 148l-40 48l-65 -56h-192l-41 49l-57 -49h-215z" />
<glyph unicode="&#x44a;" horiz-adv-x="608" d="M82 468l11 65h210l-36 -205h276l68 -82l-29 -164l-96 -82h-276l-54 65l71 403h-145zM226 92l22 -27h222l52 44l19 110l-36 44h-249z" />
<glyph unicode="&#x44b;" horiz-adv-x="693" d="M61 65l82 468h65l-36 -205h276l68 -82l-29 -164l-96 -82h-276zM131 92l22 -27h222l52 44l19 110l-36 44h-249zM558 0l93 533h65l-93 -533h-65z" />
<glyph unicode="&#x44c;" horiz-adv-x="513" d="M61 65l82 468h65l-36 -205h276l68 -82l-29 -164l-96 -82h-276zM131 92l22 -27h222l52 44l19 110l-36 44h-249z" />
<glyph unicode="&#x44d;" horiz-adv-x="514" d="M25 32l31 61l83 -28h208l50 42l22 125h-250l12 66h250l23 128l-36 42h-206l-50 -42l-16 -86h-65l20 110l96 83h258l68 -83l-65 -367l-96 -83h-240z" />
<glyph unicode="&#x44e;" horiz-adv-x="715" d="M50 0l93 533h65l-40 -229h113l26 146l96 83h253l68 -83l-65 -367l-96 -83h-253l-68 83l28 156h-113l-42 -239h-65zM312 109l36 -44h199l52 44l55 315l-36 44h-199l-52 -44z" />
<glyph unicode="&#x44f;" horiz-adv-x="517" d="M28 47l65 32l121 131h-71l-67 80l28 163l95 80h341l-93 -533h-65l37 210h-122l-165 -179l-84 -41zM146 318l34 -43h250l34 193h-250l-50 -43z" />
<glyph unicode="&#x451;" horiz-adv-x="524" d="M64 82l65 369l96 82h258l68 -82l-26 -147l-96 -81h-275l-20 -114l36 -44h207l93 28l9 -61l-107 -32h-240zM165 288h248l52 44l16 92l-36 44h-204l-52 -44zM236 629l8 42l28 24h42l20 -24l-8 -42l-28 -24h-42zM416 629l8 42l28 24h42l20 -24l-8 -42l-28 -24h-42z" />
<glyph unicode="&#x452;" horiz-adv-x="556" d="M75 0l92 524h-85l11 65h85l2 10l-13 88l64 20l15 -101l-3 -17h169l-11 -65h-169l-18 -103l37 32h242l68 -82l-53 -299l-65 -81l-149 -51l-10 61l123 40l39 45l45 259l-35 43h-188l-71 -60l-57 -328h-65z" />
<glyph unicode="&#x453;" horiz-adv-x="473" d="M34 82l17 97l41 59l326 108l15 23l9 54l-37 45h-193l-92 -30l-11 61l107 34h228l68 -82l-17 -98l-42 -60l-325 -108l-15 -22l-9 -53l37 -45h192l94 29l9 -62l-106 -32h-228zM286 578l130 170h75l-140 -170h-65z" />
<glyph unicode="&#x454;" horiz-adv-x="514" d="M64 83l65 367l96 83h258l68 -83l-20 -110h-65l16 86l-36 42h-206l-50 -42l-23 -128h250l-12 -66h-250l-22 -125l36 -42h208l93 28l9 -61l-107 -32h-240z" />
<glyph unicode="&#x455;" horiz-adv-x="477" d="M25 32l31 62l84 -29h196l53 45l10 60l-7 22l-287 108l-20 60l16 91l96 82h232l95 -34l-31 -61l-82 30h-197l-53 -45l-8 -47l7 -23l287 -108l20 -59l-18 -104l-96 -82h-232z" />
<glyph unicode="&#x456;" horiz-adv-x="216" d="M69 0l76 433l-14 88l65 20l15 -101l-77 -440h-65zM166 629l8 42l28 24h42l20 -24l-8 -42l-28 -24h-42z" />
<glyph unicode="&#x457;" horiz-adv-x="216" d="M69 0l76 433l-14 88l65 20l15 -101l-77 -440h-65zM84 629l8 42l28 24h42l20 -24l-8 -42l-28 -24h-42zM248 629l8 42l28 24h42l20 -24l-8 -42l-28 -24h-42z" />
<glyph unicode="&#x458;" horiz-adv-x="214" d="M-100 -117l122 40l39 45l82 465l-14 88l65 20l15 -101l-86 -486l-65 -81l-148 -51zM164 629l8 42l28 24h42l20 -24l-8 -42l-28 -24h-42z" />
<glyph unicode="&#x459;" horiz-adv-x="821" d="M-1 53l68 20l52 45l117 415h310l-36 -205h246l68 -82l-29 -164l-96 -82h-246l-54 65l71 403h-186l-108 -384l-78 -67l-91 -27zM469 92l22 -27h192l52 44l19 110l-36 44h-219z" />
<glyph unicode="&#x45a;" horiz-adv-x="829" d="M69 0l76 433l-14 88l65 20l15 -101l-21 -121h262l37 214h65l-37 -214h246l67 -82l-27 -155l-96 -82h-246l-54 65l33 189h-262l-44 -254h-65zM477 92l22 -27h192l52 44l18 101l-37 44h-219z" />
<glyph unicode="&#x45b;" horiz-adv-x="556" d="M75 0l92 524h-85l11 65h85l2 10l-13 88l64 20l15 -101l-3 -17h169l-11 -65h-169l-17 -98l37 32h242l68 -82l-66 -376h-65l61 350l-35 43h-188l-71 -60l-58 -333h-65z" />
<glyph unicode="&#x45c;" horiz-adv-x="486" d="M50 0l93 533h65l-41 -235h94l184 203l86 42l20 -57l-68 -33l-170 -187l105 -186l56 -33l-40 -57l-72 42l-111 201h-95l-41 -233h-65zM285 543l130 170h75l-140 -170h-65z" />
<glyph unicode="&#x45e;" horiz-adv-x="493" d="M46 -168l11 65h103l32 27l39 76h-18l-122 518l66 25l110 -471l240 471l58 -20l-322 -632l-69 -59h-128zM189 657l16 89h65l-11 -61l19 -23h167l27 23l11 61h65l-16 -89l-71 -60h-221z" />
<glyph unicode="&#x45f;" horiz-adv-x="542" d="M50 0l93 533h65l-82 -468h292l82 468h65l-93 -533h-178l-25 -140h-65l25 140h-179z" />
<glyph unicode="&#x490;" horiz-adv-x="512" d="M70 0l123 700h366l16 90h66l-28 -155h-367l-111 -635h-65z" />
<glyph unicode="&#x491;" horiz-adv-x="430" d="M50 0l93 533h304l15 80h66l-26 -145h-304l-82 -468h-66z" />
<glyph unicode="&#x2013;" horiz-adv-x="526" d="M57 267l11 66h486l-11 -66h-486z" />
<glyph unicode="&#x2014;" horiz-adv-x="712" d="M57 267l11 66h672l-11 -66h-672z" />
<glyph unicode="&#x2018;" horiz-adv-x="140" d="M71 460l127 240h45l-97 -240h-75z" />
<glyph unicode="&#x2019;" horiz-adv-x="140" d="M81 460l97 240h75l-127 -240h-45z" />
<glyph unicode="&#x201a;" horiz-adv-x="140" d="M-31 -180l96 240h75l-127 -240h-44z" />
<glyph unicode="&#x201c;" horiz-adv-x="275" d="M71 460l127 240h45l-97 -240h-75zM206 460l127 240h45l-97 -240h-75z" />
<glyph unicode="&#x201d;" horiz-adv-x="275" d="M81 460l97 240h75l-127 -240h-45zM216 460l97 240h75l-127 -240h-45z" />
<glyph unicode="&#x201e;" horiz-adv-x="275" d="M-31 -180l96 240h75l-127 -240h-44zM103 -180l97 240h75l-127 -240h-45z" />
<glyph unicode="&#x2026;" horiz-adv-x="450" d="M22 14l7 42l29 24h42l19 -24l-7 -42l-28 -24h-42zM172 14l7 42l29 24h42l19 -24l-7 -42l-28 -24h-42zM322 14l7 42l29 24h42l19 -24l-7 -42l-28 -24h-42z" />
<glyph unicode="&#x2039;" horiz-adv-x="349" d="M52 240l8 46l318 237l34 -49l-282 -211l208 -211l-52 -49z" />
<glyph unicode="&#x203a;" horiz-adv-x="349" d="M9 52l282 211l-208 211l52 49l234 -237l-8 -46l-318 -237z" />
<glyph unicode="&#x20ac;" horiz-adv-x="579" d="M25 260l11 60h70l11 60h-60l10 60h60l28 157l121 103h279l85 -103l-20 -112h-65l15 85l-54 65h-225l-76 -65l-23 -130h295l-10 -60h-295l-11 -60h285l-11 -60h-285l-23 -130l54 -65h236l89 76l39 -46l-111 -95h-291l-85 103l27 157h-70z" />
<glyph unicode="&#x2122;" horiz-adv-x="729" d="M101 635l12 65h305l-12 -65h-120l-46 -265h-65l46 265h-120zM390 370l58 330h69l75 -165l132 165h68l-58 -330h-65l37 210l-101 -126h-56l-57 126l-37 -210h-65z" />
</font>
</defs>
</svg>
